<?xml version="1.0" standalone="no"?>
<!DOCTYPE svg PUBLIC "-//W3C//DTD SVG 1.1//EN" "http://www.w3.org/Graphics/SVG/1.1/DTD/svg11.dtd" >
<svg xmlns="http://www.w3.org/2000/svg" xmlns:xlink="http://www.w3.org/1999/xlink" version="1.1">
<metadata></metadata>
<defs>
<font id="adieulight" horiz-adv-x="2217" >
<font-face units-per-em="2048" ascent="1638" descent="-410" />
<missing-glyph horiz-adv-x="614" />
<glyph horiz-adv-x="0" />
<glyph horiz-adv-x="682" />
<glyph unicode=" "  horiz-adv-x="614" />
<glyph unicode="&#x09;" horiz-adv-x="614" />
<glyph unicode="&#xa0;" horiz-adv-x="614" />
<glyph unicode="!" horiz-adv-x="528" d="M127 1434h276l-20 -832h-236zM129 92q0 53 41 91t96 38t97.5 -38t42.5 -91t-41.5 -91t-98.5 -38q-54 0 -95.5 38.5t-41.5 90.5z" />
<glyph unicode="&#x22;" horiz-adv-x="733" d="M61 1434h234l-68 -553h-131zM438 1434h234l-68 -553h-131z" />
<glyph unicode="#" horiz-adv-x="2066" d="M61 375l27 168h348l68 313h-367l27 168h377l88 410h258l-88 -410h649l88 410h258l-88 -410h299l-27 -168h-309l-67 -313h327l-26 -168h-338l-80 -375h-258l80 375h-650l-79 -375h-259l80 375h-338zM694 543h649l68 313h-649z" />
<glyph unicode="$" horiz-adv-x="1767" d="M94 453h234q-1 -135 147.5 -215t386.5 -80q582 3 582 243q0 67 -45.5 112t-122 67t-175.5 34.5t-209 20.5t-219.5 18t-208.5 34t-175.5 62.5t-122 108.5t-45.5 168q0 126 76 220t210 146.5t316 67.5v250h321v-254q273 -32 433 -158t163 -317h-235q1 136 -147 215.5 t-386 79.5q-251 0 -383.5 -57.5t-132.5 -165.5q0 -58 45 -96t121.5 -56.5t175.5 -29.5t208.5 -19.5t218.5 -21.5t208 -41.5t175.5 -72.5t121.5 -121.5t45 -182.5q0 -126 -79.5 -220.5t-219.5 -148t-332 -70.5v-198h-321v200q-294 28 -464 157t-165 321z" />
<glyph unicode="%" horiz-adv-x="2127" d="M102 1198q0 75 59.5 134t156.5 90.5t212 31.5q191 0 309.5 -70.5t118.5 -185.5t-118.5 -185.5t-309.5 -70.5q-115 0 -212 31.5t-156.5 90.5t-59.5 134zM225 0l1456 1434h242l-1454 -1434h-244zM287 1198q0 -78 67 -126t176 -48q110 0 178 47t68 123q0 80 -68 130t-178 50 q-108 0 -175.5 -49t-67.5 -127zM1171 233q0 75 59.5 134t156.5 90.5t212 31.5q191 0 310 -70.5t119 -185.5t-119 -185.5t-310 -70.5q-115 0 -212 31.5t-156.5 90.5t-59.5 134zM1356 233q0 -78 67 -127t176 -49q112 0 179 47.5t67 124.5q0 80 -68 129.5t-178 49.5 q-109 0 -176 -48.5t-67 -126.5z" />
<glyph unicode="&#x26;" horiz-adv-x="1800" d="M82 428q0 175 157 291t398 115l-426 432v168h1280v-185h-1014l864 -864q187 163 291 389l125 -153q-119 -219 -287 -367l252 -254h-266l-139 141q-267 -166 -569 -166q-58 0 -114.5 4.5t-124 17.5t-126.5 34t-115.5 56.5t-96.5 81.5t-64.5 112.5t-24.5 146.5zM311 475 q0 -163 114 -238t337 -75q221 0 424 112l-422 428q-66 13 -130 14t-122.5 -17t-103 -47t-71 -75.5t-26.5 -101.5z" />
<glyph unicode="'" horiz-adv-x="356" d="M61 1434h234l-68 -553h-131z" />
<glyph unicode="(" horiz-adv-x="962" d="M102 717q0 298 89 522t261 349t408 126v-176q-167 -1 -294.5 -103t-197 -288t-69.5 -430t69.5 -430t197 -288t294.5 -103v-177q-236 1 -408 126.5t-261 349.5t-89 522z" />
<glyph unicode=")" horiz-adv-x="962" d="M102 -104q165 1 293 105.5t198.5 291t70.5 424.5q0 239 -70.5 425.5t-198.5 290.5t-293 105v176q236 -1 408 -126t261 -349t89 -522t-89 -522t-261 -349.5t-408 -126.5v177z" />
<glyph unicode="*" horiz-adv-x="1259" d="M61 805v221l439 -61l-357 239l170 156l262 -326l-67 400h242l-66 -400l262 326l170 -156l-358 -239l440 61v-221l-440 61l358 -239l-170 -154l-262 324l66 -400h-242l67 400l-262 -324l-170 154l357 239z" />
<glyph unicode="+" horiz-adv-x="1187" d="M61 592v170h447v448h170v-448h448v-170h-446v-447h-170v447h-449z" />
<glyph unicode="," horiz-adv-x="462" d="M61 -346l129 553h211l-231 -553h-109z" />
<glyph unicode="-" horiz-adv-x="942" d="M61 592v170h820v-170h-820z" />
<glyph unicode="." horiz-adv-x="491" d="M109 92q0 53 41 91t96 38t97 -38t42 -91t-41 -91t-98 -38q-54 0 -95.5 38.5t-41.5 90.5z" />
<glyph unicode="/" horiz-adv-x="2084" d="M61 0l1704 1434h258l-1704 -1434h-258z" />
<glyph unicode="0" horiz-adv-x="1998" d="M94 717q0 340 244 544.5t661 204.5q418 0 663 -204.5t245 -544.5t-245 -545t-663 -205q-417 0 -661 205t-244 545zM324 717q0 -256 185.5 -407.5t489.5 -151.5q307 0 492.5 151.5t185.5 407.5q0 257 -185.5 408t-492.5 151q-305 0 -490 -151t-185 -408z" />
<glyph unicode="1" horiz-adv-x="1202" d="M113 750v227l796 457h107v-1434h-230v1190z" />
<glyph unicode="2" horiz-adv-x="1746" d="M113 0v123q63 32 161.5 82.5t174.5 88.5t175.5 90.5t176.5 94.5t164.5 93.5t152 95t126.5 92.5t101 91.5t63 86t24 82.5q0 92 -55 146.5t-180 81t-337 26.5q-153 0 -381.5 -27.5t-292.5 -52.5v199q88 29 313 50t416 21q152 0 265.5 -11.5t207.5 -39.5t152.5 -74 t90.5 -115.5t32 -164.5q0 -97 -70.5 -202t-182 -197t-259.5 -182.5t-292.5 -160t-291.5 -127.5h1035v-190h-1489z" />
<glyph unicode="3" horiz-adv-x="1681" d="M84 57v191q98 -42 288 -66t359 -24q341 0 497 49t156 149q0 48 -22 83.5t-78.5 65t-143.5 50t-228 38t-319.5 29.5t-430.5 23v148q350 12 579.5 33t362.5 54t186 75t53 102q0 112 -144 166.5t-470 54.5q-162 0 -353 -25.5t-292 -66.5v190q120 44 311 68t355 24 q102 0 182.5 -3.5t167 -14t151 -28.5t124 -48t97 -70.5t60 -98.5t22.5 -130q0 -57 -22 -104.5t-55 -81t-85 -60t-97.5 -43t-109 -28t-102.5 -16.5t-94 -8t-69 -3h-41v-18q8 0 49 -0.5t72.5 -1.5t86 -5t97.5 -10.5t98 -20t96.5 -30.5t84 -44t70 -60.5t45 -79.5t17.5 -101 q0 -93 -38.5 -162t-106 -112.5t-170 -70.5t-218.5 -37.5t-265 -10.5q-470 0 -713 90z" />
<glyph unicode="4" horiz-adv-x="1804" d="M43 270v136l1090 1028h389v-973h227v-191h-227v-270h-230v270h-1249zM338 461h954v901z" />
<glyph unicode="5" horiz-adv-x="1689" d="M84 51v209q82 -38 288 -70t355 -32q332 0 479.5 77.5t147.5 249.5q0 134 -117.5 190t-357.5 56q-362 0 -715 -160v863h1341v-191h-1161v-405q275 92 594 92q103 0 187.5 -10t172.5 -41t148.5 -81t98.5 -135.5t38 -199.5q0 -156 -107.5 -269t-298.5 -170t-444 -57 q-154 0 -355 23.5t-294 60.5z" />
<glyph unicode="6" horiz-adv-x="1775" d="M94 741q0 175 65.5 313t184.5 227.5t284 136t365 46.5q341 0 580 -118v-218q-140 78 -286.5 112t-332.5 34q-179 0 -322.5 -66.5t-225.5 -188.5t-82 -278v-57q122 104 309 181t397 77q166 0 292.5 -36.5t204.5 -102.5t117 -153.5t39 -194.5q0 -220 -198 -350t-551 -130 q-190 0 -343 47t-264.5 140t-172 240t-60.5 339zM350 492q49 -174 184 -250t381 -76q276 0 406.5 69t130.5 228q0 297 -473 297q-109 0 -230.5 -31t-232 -94t-166.5 -143z" />
<glyph unicode="7" horiz-adv-x="1665" d="M33 1243v191h1589v-91l-977 -1343h-278l974 1243h-1308z" />
<glyph unicode="8" horiz-adv-x="1728" d="M84 375q0 69 30 125t75 90.5t108.5 59.5t119.5 36.5t120 18.5q-57 10 -108.5 26t-109 45.5t-99 67.5t-68.5 96t-27 127q0 191 196 292t543 101q210 0 373.5 -41.5t264 -132t100.5 -219.5q0 -69 -27 -127t-68.5 -96t-99 -67.5t-109 -45.5t-108.5 -26q53 -6 100 -15 t101 -25.5t97 -41.5t78.5 -59t55.5 -82.5t20 -106.5q0 -129 -95 -223.5t-264 -143.5t-390 -49q-178 0 -320.5 22.5t-254.5 70t-173 129.5t-61 194zM315 387q0 -110 151 -171.5t400 -61.5q247 0 396 61.5t149 171.5q0 114 -133.5 168.5t-413.5 54.5t-414.5 -54.5 t-134.5 -168.5zM356 1028q0 -120 123.5 -172.5t384.5 -52.5q262 0 384 52t122 173q0 106 -138.5 173t-367.5 67q-230 0 -369 -67t-139 -173z" />
<glyph unicode="9" horiz-adv-x="1775" d="M92 983q0 220 198.5 349.5t551.5 129.5q190 0 343 -47t264.5 -140t171.5 -240t60 -339q0 -175 -65.5 -313t-184.5 -227.5t-284 -136t-365 -46.5q-338 0 -579 119v217q140 -78 285.5 -111.5t332.5 -33.5q179 0 322.5 66t226 188t82.5 278v58q-122 -104 -309.5 -181 t-397.5 -77q-166 0 -292.5 36.5t-204.5 102.5t-117 153.5t-39 194.5zM324 975q0 -297 473 -297q109 0 230 31t231.5 94t166.5 143q-49 174 -184 250t-381 76q-276 0 -406 -69t-130 -228z" />
<glyph unicode=":" horiz-adv-x="624" d="M109 92q0 53 41 91t96 38t97 -38t42 -91t-41 -91t-98 -38q-54 0 -95.5 38.5t-41.5 90.5zM109 719q0 53 41 91t96 38t97 -38t42 -91t-41 -91t-98 -38q-54 0 -95.5 38.5t-41.5 90.5z" />
<glyph unicode=";" horiz-adv-x="600" d="M61 -346l129 553h211l-231 -553h-109zM154 719q0 53 41 91t96 38t97 -38t42 -91t-41 -91t-98 -38q-54 0 -95.5 38.5t-41.5 90.5z" />
<glyph unicode="&#x3c;" horiz-adv-x="944" d="M61 512l422 512h308l-439 -512l439 -512h-308z" />
<glyph unicode="=" horiz-adv-x="1187" d="M61 326v170h1065v-170h-1065zM61 844v170h1065v-170h-1065z" />
<glyph unicode="&#x3e;" horiz-adv-x="851" d="M61 0l439 512l-439 512h308l422 -512l-422 -512h-308z" />
<glyph unicode="?" horiz-adv-x="1490" d="M20 1231v196q270 37 574 37q156 0 271 -12t209.5 -41.5t153 -78t89.5 -122t31 -174.5q0 -72 -24.5 -128.5t-66 -92.5t-95.5 -62.5t-114 -44t-119.5 -32t-113.5 -31t-95.5 -37.5t-66 -54.5t-24.5 -78.5h-150q-2 14 -2 37q0 66 27.5 118t72.5 83.5t102.5 58.5t117 44 t117 38.5t102.5 44t72.5 59t27.5 84.5q0 51 -10 86t-38 61.5t-68 42.5t-110.5 25.5t-155.5 13t-212 3.5q-214 0 -502 -43zM416 92q0 53 41 91t96 38t97 -38t42 -91t-41 -91t-98 -38q-54 0 -95.5 38.5t-41.5 90.5z" />
<glyph unicode="@" horiz-adv-x="2197" d="M102 659q0 185 70 338.5t197.5 261t314.5 167t414 59.5q226 0 415 -60.5t315.5 -164t196.5 -243t70 -296.5q0 -158 -82.5 -283t-253.5 -188h-358l51 301h-12q-37 -165 -174 -246.5t-340 -81.5q-314 0 -314 221q0 46 20.5 84.5t58.5 66t85 50t106.5 37t115 25.5t120 18 t112 11t99 7.5t74.5 6.5q-1 131 -66.5 181t-222.5 50q-174 0 -395 -96v143q245 92 463 92q212 0 310.5 -104t98.5 -291v-442q160 88 218.5 186t58.5 252q0 168 -96.5 297t-271.5 199.5t-402 70.5q-226 0 -400.5 -79.5t-270 -222.5t-95.5 -327q0 -138 56 -254.5t155.5 -198 t242.5 -127.5t312 -46q204 0 350 51v-209q-161 -41 -350 -41q-227 0 -414 59.5t-314.5 167t-197.5 260.5t-70 338zM811 467q0 -51 47 -79t133 -28q105 0 195 30.5t149.5 94t61.5 148.5q-27 -2 -92.5 -6t-110 -8t-108.5 -11t-107 -18t-84.5 -27t-62.5 -40.5t-21 -55.5z" />
<glyph unicode="A" d="M74 0l882 1434h306l880 -1434h-258l-198 334h-1156l-196 -334h-260zM645 524h928l-463 791z" />
<glyph unicode="B" horiz-adv-x="1896" d="M186 0v1434h1051q217 0 339 -105t122 -274q0 -153 -105 -234t-293 -92q206 -5 325.5 -94.5t119.5 -253.5q0 -172 -127 -276.5t-336 -104.5h-1096zM414 1243l2 -444h749q303 0 303 217q0 227 -303 227h-751zM416 657l2 -464h792q303 0 303 239q0 225 -303 225h-794z" />
<glyph unicode="C" horiz-adv-x="1914" d="M94 717q0 223 107.5 393.5t303.5 263t453 92.5t453.5 -81.5t304 -231t107.5 -344.5h-234q-9 216 -181 341.5t-450 125.5q-288 0 -461 -150.5t-173 -408.5q0 -257 173.5 -408t460.5 -151q279 0 451.5 126t179.5 341h234q0 -195 -107.5 -345t-304.5 -231.5t-453 -81.5 q-257 0 -453 93t-303.5 263.5t-107.5 393.5z" />
<glyph unicode="D" horiz-adv-x="1783" d="M186 0v1434h668q394 0 615 -185t221 -532q0 -350 -221 -533.5t-615 -183.5h-668zM416 190h438q284 0 456.5 142.5t172.5 384.5t-172.5 384t-456.5 142h-438v-1053z" />
<glyph unicode="E" horiz-adv-x="1658" d="M186 0v1434h1307v-191h-1077v-428h1059v-174h-1059v-451h1077v-190h-1307z" />
<glyph unicode="F" horiz-adv-x="1589" d="M186 0v1434h1299v-191h-1069v-428h1050v-174h-1050v-641h-230z" />
<glyph unicode="G" horiz-adv-x="1988" d="M115 717q0 223 107.5 393.5t303.5 263t453 92.5q367 0 594 -152.5t244 -404.5h-224q-19 174 -179 270.5t-435 96.5q-288 0 -461.5 -150.5t-173.5 -408.5q0 -256 173.5 -407.5t461.5 -151.5q271 0 441 110t190 301h-846v179h1075v-748h-213l12 252 q-101 -142 -277.5 -213.5t-381.5 -71.5q-257 0 -453 93t-303.5 263.5t-107.5 393.5z" />
<glyph unicode="H" horiz-adv-x="1859" d="M186 0v1434h230v-600h1026v600h229v-1434h-229v643h-1026v-643h-230z" />
<glyph unicode="I" horiz-adv-x="604" d="M186 0v1434h230v-1434h-230z" />
<glyph unicode="J" horiz-adv-x="1716" d="M125 694h231q0 -290 110 -413t361 -123q252 0 361.5 123t109.5 413v549h-983v191h1213v-740q0 -727 -701 -727q-702 0 -702 727z" />
<glyph unicode="K" horiz-adv-x="1945" d="M186 0v1434h230v-887l1040 887h316l-596 -498l639 -936h-277l-534 797l-588 -490v-307h-230z" />
<glyph unicode="L" horiz-adv-x="1546" d="M186 0v1434h230v-1244h1046v-190h-1276z" />
<glyph unicode="M" horiz-adv-x="2181" d="M186 0v1434h285l619 -1084l620 1084h283v-1434h-230v1114l-653 -1114h-39l-655 1106v-1106h-230z" />
<glyph unicode="N" horiz-adv-x="1980" d="M186 0v1434h234l1145 -1155v1155h229v-1434h-235l-1143 1153v-1153h-230z" />
<glyph unicode="O" horiz-adv-x="1998" d="M94 717q0 340 244 544.5t661 204.5q418 0 663 -204.5t245 -544.5t-245 -545t-663 -205q-417 0 -661 205t-244 545zM324 717q0 -256 185.5 -407.5t489.5 -151.5q307 0 492.5 151.5t185.5 407.5q0 257 -185.5 408t-492.5 151q-305 0 -490 -151t-185 -408z" />
<glyph unicode="P" horiz-adv-x="1804" d="M186 0v1434h1010q109 0 200 -35t152 -94.5t95 -139.5t34 -170q0 -211 -133 -323.5t-348 -112.5h-780v-559h-230zM414 754h731q160 0 231.5 57t71.5 184q0 128 -72 187t-231 59h-731v-487z" />
<glyph unicode="Q" horiz-adv-x="2039" d="M94 717q0 340 244 544.5t661 204.5q418 0 663 -204.5t245 -544.5q0 -266 -156 -455l199 -115l-92 -141l-236 133q-242 -172 -623 -172q-417 0 -661 205t-244 545zM324 717q0 -256 185.5 -407.5t489.5 -151.5q243 0 416 98l-432 246l86 155l490 -282q118 140 118 342 q0 257 -185.5 408t-492.5 151q-305 0 -490 -151t-185 -408z" />
<glyph unicode="R" horiz-adv-x="1927" d="M186 0v1434h1112q217 0 339 -105t122 -274t-125.5 -265t-335.5 -96h-151q62 -4 115 -16.5t101 -37t88.5 -52.5t83 -75.5t77.5 -93t79.5 -118t81.5 -138t91 -163.5h-250q-168 300 -221 382q-95 144 -182 195q-82 48 -207 48h-590l2 -625h-230zM412 1241l2 -420h813 q156 0 229.5 52.5t73.5 144.5q0 117 -71.5 170t-231.5 53h-815z" />
<glyph unicode="S" horiz-adv-x="1769" d="M94 453h234q-1 -135 147.5 -215t386.5 -80q582 3 582 243q0 67 -45.5 112t-122 67t-175.5 34.5t-209 20.5t-219.5 18t-208.5 34t-175.5 62.5t-122 108.5t-45.5 168q0 141 94.5 241.5t259.5 149.5t385 49q351 0 564 -131.5t216 -353.5h-235q1 136 -147 215.5t-386 79.5 q-251 0 -383.5 -57.5t-132.5 -165.5q0 -58 45 -96t121.5 -56.5t175.5 -29.5t208.5 -19.5t218.5 -21.5t208 -41.5t175.5 -72.5t121.5 -121.5t45 -182.5q0 -143 -101.5 -244.5t-279 -151t-415.5 -49.5t-418 61t-275 171q-92 107 -92 245v9z" />
<glyph unicode="T" horiz-adv-x="1835" d="M74 1243v191h1685v-191h-729v-1243h-229v1243h-727z" />
<glyph unicode="U" horiz-adv-x="1847" d="M186 768v666h230v-727q0 -284 121 -417.5t387 -133.5t386 133.5t120 417.5v727h229v-666q0 -181 -32 -317.5t-91 -228t-151 -149t-204 -82t-257 -24.5t-257.5 24.5t-204.5 82t-152 149t-92 228t-32 317.5z" />
<glyph unicode="V" horiz-adv-x="2119" d="M74 1434h282l705 -1368l702 1368h283l-756 -1434h-461z" />
<glyph unicode="W" horiz-adv-x="2578" d="M121 1434h237l424 -1162l410 1162h192l410 -1162l424 1162h240l-531 -1434h-241l-396 1155l-397 -1155h-242z" />
<glyph unicode="X" horiz-adv-x="1900" d="M119 1434h284l547 -580l547 580h283l-690 -727l669 -707h-278l-541 573l-543 -573h-276l680 719z" />
<glyph unicode="Y" horiz-adv-x="1777" d="M51 1434h281l557 -754l557 754h280l-722 -969v-465h-230v463z" />
<glyph unicode="Z" horiz-adv-x="1800" d="M94 0v133l1262 1110h-1245v191h1575v-127l-1252 -1117h1272v-190h-1612z" />
<glyph unicode="[" horiz-adv-x="1050" d="M61 -389v1823h928v-107h-698v-1610h698v-106h-928z" />
<glyph unicode="\" horiz-adv-x="2084" d="M61 1434h258l1704 -1434h-258z" />
<glyph unicode="]" horiz-adv-x="1050" d="M61 -283h699v1610h-699v107h928v-1823h-928v106z" />
<glyph unicode="^" horiz-adv-x="1146" d="M61 649v242l512 561l512 -561v-242l-512 496z" />
<glyph unicode="_" horiz-adv-x="2170" d="M61 0v170h2048v-170h-2048z" />
<glyph unicode="`" horiz-adv-x="792" d="M102 1450v209l588 -381v-164z" />
<glyph unicode="a" horiz-adv-x="1376" d="M94 238q0 62 33 113t85 85.5t129 62t150 43t164 28t155.5 17.5t140.5 10.5t104 8.5q-1 160 -80 221.5t-270 61.5q-210 0 -482 -117v174q303 111 563 111q258 0 378 -126.5t120 -352.5v-578h-231l61 367h-14q-44 -202 -211 -301t-414 -99q-53 0 -99 5t-100 22t-92 45.5 t-64 79.5t-26 119zM336 264q0 -61 57.5 -95t161.5 -34q128 0 237.5 36.5t181.5 113.5t75 180q-31 -3 -86.5 -6.5t-100 -6.5t-103.5 -7.5t-106 -11.5t-97.5 -16.5t-88 -24t-68.5 -32t-47 -42.5t-16 -54z" />
<glyph unicode="b" horiz-adv-x="1574" d="M150 0v1434h229v-742h8q24 122 109.5 206.5t198.5 121.5t245 37q143 0 266.5 -66t200 -190.5t76.5 -280.5q0 -161 -76 -289t-198.5 -196t-264.5 -68q-99 0 -191.5 21.5t-173 64t-137.5 115t-75 166.5h-25l45 -334h-237zM442 516q0 -165 119 -272t287 -107 q183 0 292 104.5t109 274.5q0 166 -109 268.5t-292 102.5q-168 0 -287 -105t-119 -266z" />
<glyph unicode="c" horiz-adv-x="1294" d="M94 512q0 247 176 396t467 149q131 0 230.5 -25.5t232.5 -85.5v-186q-226 127 -409 127q-241 0 -353 -84.5t-112 -290.5q0 -205 113.5 -290t357.5 -85q114 0 208.5 27.5t194.5 91.5v-178q-141 -63 -232.5 -87t-232.5 -24q-184 0 -330 67t-228.5 192t-82.5 286z" />
<glyph unicode="d" horiz-adv-x="1574" d="M92 520q0 156 76.5 280.5t200 190.5t266.5 66q132 0 245 -37t198.5 -121.5t109.5 -206.5h8v742h229v-1434h-237l45 334h-25q-18 -94 -75 -166.5t-137.5 -115t-173 -64t-191.5 -21.5q-142 0 -264.5 68t-198.5 196t-76 289zM326 516q0 -170 109 -274.5t292 -104.5 q168 0 287 107t119 272q0 161 -119 266t-287 105q-183 0 -292 -102.5t-109 -268.5z" />
<glyph unicode="e" horiz-adv-x="1419" d="M94 512q0 246 169.5 395.5t447.5 149.5q275 0 443 -127.5t173 -337.5v-168h-1020q24 -153 144.5 -219t361.5 -66q72 0 130 5.5t113 21.5t78.5 23.5t81.5 33.5t66 29v-184q-162 -61 -275.5 -81t-295.5 -20q-278 0 -447.5 149.5t-169.5 395.5zM303 565l809 17 q-4 168 -97.5 236.5t-303.5 68.5q-206 0 -301 -73t-107 -249z" />
<glyph unicode="f" horiz-adv-x="915" d="M109 860v164h139v41q0 191 83.5 288t260.5 97q52 0 203 -31v-112q-15 -1 -40 0.5t-30 1.5q-58 0 -96.5 -4.5t-67.5 -19t-44.5 -32.5t-25 -53.5t-12 -74t-2.5 -101.5h318v-143h-318v-881h-229v860h-139z" />
<glyph unicode="g" horiz-adv-x="1568" d="M115 520q0 156 76 280.5t198.5 190.5t265.5 66q132 0 245 -37t199 -121.5t111 -206.5h27l-23 332h209v-901q0 -135 -48 -238.5t-135.5 -167t-205.5 -95.5t-264 -32q-41 0 -77 1t-70.5 5.5t-58 7t-56 10.5t-47.5 11.5t-49 15.5t-44 15.5t-50 19t-50 19.5v207 q84 -64 226 -103t290 -39q217 0 322.5 94t107.5 252l11 201q-24 -88 -82 -156t-137 -108.5t-169 -61t-186 -20.5q-106 0 -203.5 41t-171 113.5t-117.5 178t-44 226.5zM346 516q0 -170 110 -274.5t292 -104.5q167 0 286 107t119 272q0 161 -118.5 266t-286.5 105 q-182 0 -292 -103t-110 -268z" />
<glyph unicode="h" horiz-adv-x="1404" d="M150 0v1434h258l-41 -832h12q15 93 53 173t98 144t149.5 101t197.5 37q221 -3 328.5 -153.5t107.5 -459.5v-444h-230v410q0 247 -73 361t-232 114q-187 0 -293 -169.5t-106 -463.5v-252h-229z" />
<glyph unicode="i" horiz-adv-x="581" d="M141 1389q0 66 41 103.5t107 37.5q68 0 109.5 -37.5t41.5 -103.5q0 -67 -41.5 -104.5t-109.5 -37.5q-66 0 -107 37.5t-41 104.5zM178 0v1024h230v-1024h-230z" />
<glyph unicode="j" horiz-adv-x="569" d="M-35 -254q101 0 153 49.5t52 136.5v1092h229v-1044q0 -117 -64.5 -208t-162 -136.5t-207.5 -45.5v156zM135 1389q0 66 40.5 103.5t107.5 37.5q68 0 109.5 -37.5t41.5 -103.5q0 -67 -41.5 -104.5t-109.5 -37.5q-67 0 -107.5 37t-40.5 105z" />
<glyph unicode="k" horiz-adv-x="1501" d="M150 0v1434h229v-969l663 559h340l-426 -330l437 -694h-281l-326 563l-407 -319v-244h-229z" />
<glyph unicode="l" horiz-adv-x="526" d="M150 0v1434h229v-1434h-229z" />
<glyph unicode="m" horiz-adv-x="2336" d="M150 0v1024h258l-41 -422h12q15 93 53 173t98 144t149.5 101t197.5 37q190 -3 296 -114.5t132 -340.5h8q15 93 52.5 173t97.5 144t149.5 101t197.5 37q221 -3 329 -153.5t108 -459.5v-444h-230v410q-1 250 -73 364q-71 111 -224 111h-8q-187 0 -293 -169.5t-106 -463.5 v-252h-230v410q-1 250 -73 364q-71 111 -224 111h-8q-187 0 -293 -169.5t-106 -463.5v-252h-229z" />
<glyph unicode="n" horiz-adv-x="1402" d="M150 0v1024h258l-41 -422h12q15 93 53 173t98 144t149.5 101t197.5 37q221 -3 328.5 -153.5t107.5 -459.5v-444h-230v410q0 247 -73 361t-232 114q-187 0 -293 -169.5t-106 -463.5v-252h-229z" />
<glyph unicode="o" horiz-adv-x="1456" d="M94 512q0 246 173.5 395.5t459.5 149.5q287 0 461 -149.5t174 -395.5t-174 -395.5t-461 -149.5q-286 0 -459.5 149.5t-173.5 395.5zM303 512q0 -168 117 -271.5t307 -103.5q192 0 309 103.5t117 271.5t-117 271.5t-309 103.5q-190 0 -307 -103.5t-117 -271.5z" />
<glyph unicode="p" horiz-adv-x="1574" d="M150 -410v1434h237l-45 -334h25q18 94 75 166.5t137.5 115t173 64t191.5 21.5q142 0 264.5 -68t198.5 -196t76 -289q0 -156 -76.5 -280.5t-200 -190.5t-266.5 -66q-132 0 -245 37t-198.5 121.5t-109.5 206.5h-8v-742h-229zM442 508q0 -161 119 -266t287 -105 q183 0 292 102.5t109 268.5q0 170 -109 274.5t-292 104.5q-168 0 -287 -107t-119 -272z" />
<glyph unicode="q" horiz-adv-x="1574" d="M92 504q0 161 76 289t198.5 196t264.5 68q99 0 191.5 -21.5t173 -64t137.5 -115t75 -166.5h25l-45 334h237v-1434h-229v742h-8q-24 -122 -109.5 -206.5t-198.5 -121.5t-245 -37q-143 0 -266.5 66t-200 190.5t-76.5 280.5zM326 508q0 -166 109 -268.5t292 -102.5 q168 0 287 105t119 266q0 165 -119 272t-287 107q-183 0 -292 -104.5t-109 -274.5z" />
<glyph unicode="r" horiz-adv-x="1085" d="M150 0v1024h258l-41 -422h20q27 171 95 268.5t194.5 142t335.5 44.5v-191q-170 0 -292.5 -34.5t-197 -103t-109 -163t-34.5 -221.5v-344h-229z" />
<glyph unicode="s" horiz-adv-x="1382" d="M94 723q0 163 162 248.5t440 85.5q94 0 237 -16t275 -42v-163q-248 53 -497 53q-199 0 -292 -34.5t-93 -104.5q0 -45 41.5 -73.5t109 -40.5t154.5 -22.5t177 -17t177 -26.5t154.5 -49.5t109 -86.5t41.5 -137q0 -166 -160.5 -248t-441.5 -82q-120 0 -271.5 22t-277.5 58 v178q229 -88 510 -88q220 0 314 31.5t94 112.5q0 42 -33 69t-88.5 40.5t-128 21t-152.5 13.5t-159.5 14t-152 27t-128 49t-88.5 83t-33 125z" />
<glyph unicode="t" horiz-adv-x="903" d="M84 860v164h207v246l186 41v-287h340v-164h-340v-430q0 -67 1 -96.5t4 -72t12 -57.5t23.5 -36.5t39.5 -27t58 -10.5t81 -5q31 0 121 4v-109q-102 -40 -262 -40q-58 0 -101 6.5t-76 19t-55.5 35.5t-37.5 51.5t-23 71.5t-11 90.5t-3 114.5v491h-164z" />
<glyph unicode="u" horiz-adv-x="1402" d="M90 580v444h229v-410q0 -247 73.5 -361t232.5 -114q187 0 293 169.5t106 463.5v252h229v-1024h-258l41 422h-12q-15 -93 -53 -173t-98 -144t-149.5 -101t-197.5 -37q-221 3 -328.5 153.5t-107.5 459.5z" />
<glyph unicode="v" horiz-adv-x="1587" d="M74 1024h241l480 -907l477 907h241l-540 -1024h-359z" />
<glyph unicode="w" horiz-adv-x="2158" d="M51 1024h221l377 -887l355 887h131l374 -887l377 887h221l-438 -1024h-340l-258 627l-242 -627h-340z" />
<glyph unicode="x" horiz-adv-x="1570" d="M53 0l572 514l-572 510h303l428 -385l430 385h304l-582 -518l563 -506h-301l-420 377l-424 -377h-301z" />
<glyph unicode="y" horiz-adv-x="1546" d="M51 1024h246l491 -844l482 844h225l-801 -1434h-225l229 400z" />
<glyph unicode="z" horiz-adv-x="1458" d="M61 0v68l924 784h-907v172h1319v-63l-920 -787h899v-174h-1315z" />
<glyph unicode="{" horiz-adv-x="1398" d="M61 645v139q141 2 239 29t153.5 78t79.5 117t24 155q0 68 6.5 116t24 95.5t50 79.5t84.5 60t127 43.5t177 24.5t236 9v-125q-270 0 -393.5 -66t-123.5 -237v-38q0 -32 0.5 -62t-2.5 -59t-7.5 -56t-15 -52t-25 -47.5t-37.5 -42.5t-52.5 -36.5t-70 -30t-89.5 -22.5 q110 -7 185 -42.5t115.5 -99.5t57.5 -141t17 -182q0 -84 33.5 -141t102.5 -89.5t160 -46.5t220 -14v-125q-131 0 -232 8.5t-175.5 24t-126.5 42.5t-85 58t-51.5 77t-25 93.5t-6.5 112.5q0 393 -574 393z" />
<glyph unicode="|" horiz-adv-x="475" d="M123 -348v1823h229v-1823h-229z" />
<glyph unicode="}" horiz-adv-x="1443" d="M106 -39q261 0 389 64.5t128 226.5q0 83 10 148t35.5 123.5t67 98t107.5 65t154 30.5q-55 10 -99.5 25.5t-75 35t-53 43.5t-35.5 50.5t-21.5 56.5t-11 62t-4 66t0.5 69v13v12v13q0 71 -21.5 123t-61.5 86.5t-104.5 55.5t-143 29.5t-185.5 8.5v125q134 0 236 -9t177 -24.5 t127 -43.5t84.5 -60t50 -79.5t24 -95.5t6.5 -116q0 -89 24 -155t79.5 -117t153 -78t238.5 -29v-139q-573 0 -573 -393q0 -76 -9.5 -129.5t-36.5 -103.5t-75.5 -81.5t-126 -56t-190 -35t-265.5 -10.5v125z" />
<glyph unicode="~" horiz-adv-x="903" d="M61 637q1 119 71.5 192.5t180.5 73.5q36 0 69 -15t57 -36.5t47 -43.5t50 -37t54 -15q59 0 93.5 36t35.5 109h123q-1 -120 -71.5 -193t-180.5 -73q-41 0 -76.5 15t-61 36.5t-47.5 43.5t-45.5 37t-46.5 15q-57 0 -91.5 -37t-35.5 -108h-125z" />
<glyph unicode="&#xa1;" horiz-adv-x="532" d="M127 -395l20 831h236l20 -831h-276zM129 946q0 52 41.5 90.5t95.5 38.5q57 0 98.5 -38t41.5 -91t-42.5 -91t-97.5 -38t-96 38t-41 91z" />
<glyph unicode="&#xa2;" horiz-adv-x="1206" d="M74 696q0 195 113 331.5t311 186.5v220h321v-197q156 -14 361 -107v-186q-226 127 -410 127q-241 0 -353 -84.5t-112 -290.5q0 -205 113.5 -289.5t357.5 -84.5q114 0 209 27t195 91v-178q-120 -52 -193.5 -75.5t-167.5 -30.5v-217h-321v239q-194 54 -309 190.5 t-115 327.5z" />
<glyph unicode="&#xa3;" horiz-adv-x="1847" d="M102 469v209h260l-24 84h-236v209h193q-2 23 -2 65q0 221 174.5 324.5t560.5 103.5q191 0 410.5 -21t306.5 -50v-199q-64 25 -292.5 52.5t-381.5 27.5q-303 0 -420 -63.5t-127 -239.5h1053v-209h-1020l23 -84h997v-209h-969q-7 -178 -151 -276h1274v-193h-1557v193 q126 54 179 121.5t53 154.5h-304z" />
<glyph unicode="&#xa4;" horiz-adv-x="1474" d="M127 236l160 161q-94 114 -94 279q0 173 104 289l-170 172l160 161l207 -206q103 34 241 34q136 0 248 -32l205 204l162 -161l-168 -168q96 -111 96 -293q0 -168 -86 -283l158 -157l-162 -160l-189 188q-107 -39 -264 -39q-144 0 -256 41l-192 -190zM354 676 q0 -148 105.5 -239t275.5 -91t275.5 91t105.5 239t-105.5 239t-275.5 91t-275.5 -91t-105.5 -239z" />
<glyph unicode="&#xa5;" horiz-adv-x="1695" d="M51 1434h281l508 -689h98l508 689h280l-514 -689h404v-208h-559l-53 -72v-12h612v-209h-612v-244h-230v244h-612v209h612v10l-55 74h-557v208h401z" />
<glyph unicode="&#xa6;" horiz-adv-x="475" d="M123 -348v856h229v-856h-229zM123 641v834h229v-834h-229z" />
<glyph unicode="&#xa7;" horiz-adv-x="1318" d="M61 709q0 66 31.5 106.5t102.5 65.5q-134 86 -134 196q0 164 162.5 250t440.5 86q95 0 238.5 -15.5t273.5 -41.5v-162q-109 23 -252.5 38t-259.5 15q-228 0 -300.5 -20.5t-72.5 -91.5q0 -26 33 -44t89 -29t128.5 -19.5t152.5 -19t160 -25t152.5 -40t128.5 -60.5t89 -90.5 t33 -125.5q0 -111 -114 -188q114 -87 114 -183q0 -103 -76.5 -174t-209.5 -104t-316 -33q-120 0 -271.5 22t-277.5 58v162q134 -51 242.5 -69.5t306.5 -18.5q154 0 231 7t109.5 25t32.5 54q0 47 -53.5 78.5t-138.5 48t-188.5 30t-206.5 33.5t-188 50.5t-138.5 88.5 t-53.5 140zM301 737q-8 -92 72.5 -141t269.5 -66q78 -4 105 -4q134 0 198 38t70 118q9 94 -73 143t-277 68q-74 4 -99 4q-129 0 -194 -38.5t-72 -121.5z" />
<glyph unicode="&#xa8;" horiz-adv-x="1204" d="M102 1276q0 78 56.5 126t146.5 48q97 0 150 -47t53 -127t-53 -127t-150 -47q-90 0 -146.5 48t-56.5 126zM696 1276q0 78 56.5 126t146.5 48q97 0 150 -47t53 -127t-53 -127t-150 -47q-90 0 -146.5 48t-56.5 126z" />
<glyph unicode="&#xa9;" horiz-adv-x="1976" d="M102 717q0 341 238 545t647 204q417 0 652 -201.5t235 -547.5q0 -169 -60 -307.5t-172.5 -236.5t-279.5 -152t-375 -54q-414 0 -649.5 204t-235.5 546zM156 713q0 -150 56 -277t160 -218.5t262 -143t353 -51.5q205 0 364.5 52t260.5 146t153 220.5t52 279.5 q0 152 -52.5 277.5t-154.5 218t-261 143.5t-362 51q-197 0 -355.5 -52.5t-262 -145.5t-158.5 -220.5t-55 -279.5zM381 719q0 246 169 395.5t447 149.5q277 0 446 -134t169 -352h-234q-11 149 -115.5 240.5t-265.5 91.5q-174 0 -280.5 -107t-106.5 -284t106.5 -284 t280.5 -107q166 0 272 95.5t113 252.5h232q0 -226 -169.5 -364t-447.5 -138t-447 149.5t-169 395.5z" />
<glyph unicode="&#xab;" horiz-adv-x="1720" d="M109 512l421 512h308l-439 -512l439 -512h-308zM885 512l422 512h307l-438 -512l438 -512h-307z" />
<glyph unicode="&#xac;" horiz-adv-x="1372" d="M61 684v170h1250v-698h-170l-2 528h-1078z" />
<glyph unicode="&#xad;" horiz-adv-x="942" d="M61 592v170h820v-170h-820z" />
<glyph unicode="&#xae;" horiz-adv-x="1976" d="M102 717q0 341 238 545t647 204q417 0 652 -201.5t235 -547.5q0 -169 -60 -307.5t-172.5 -236.5t-279.5 -152t-375 -54q-414 0 -649.5 204t-235.5 546zM156 713q0 -150 56 -277t160 -218.5t262 -143t353 -51.5q205 0 364.5 52t260.5 146t153 220.5t52 279.5 q0 152 -52.5 277.5t-154.5 218t-261 143.5t-362 51q-197 0 -355.5 -52.5t-262 -145.5t-158.5 -220.5t-55 -279.5zM532 272v891h691q134 0 209 -65.5t75 -169.5q0 -106 -77.5 -166t-206.5 -60h-95q61 -4 110.5 -23t88 -48t81.5 -87t77 -115t88 -157h-156q-116 210 -156 266 q-63 87 -134 109q-37 12 -89 12h-366l2 -387h-142zM672 782h506q188 0 188 123q0 72 -45 104.5t-143 32.5h-506v-260z" />
<glyph unicode="&#xaf;" horiz-adv-x="1294" d="M102 1323v111h1090v-111h-1090z" />
<glyph unicode="&#xb0;" horiz-adv-x="1060" d="M102 1198q0 75 59.5 134t156.5 90.5t212 31.5q191 0 309.5 -70.5t118.5 -185.5t-118.5 -185.5t-309.5 -70.5q-115 0 -212 31.5t-156.5 90.5t-59.5 134zM287 1198q0 -78 67 -126t176 -48q110 0 178 47t68 123q0 80 -68 130t-178 50q-108 0 -175.5 -49t-67.5 -127z" />
<glyph unicode="&#xb1;" horiz-adv-x="1228" d="M61 0v88h1065v-88h-1065zM195 715v174h313v311h174v-311h311v-174h-311v-314h-174v314h-313z" />
<glyph unicode="&#xb4;" horiz-adv-x="792" d="M102 1114v164l588 381v-209z" />
<glyph unicode="&#xb6;" horiz-adv-x="1923" d="M61 995q0 90 34 170t95 139.5t152.5 94.5t200.5 35h501v-1803h-237v928h-264q-141 0 -248 47.5t-170.5 147.5t-63.5 241zM1632 -369v1803h230v-1803h-230z" />
<glyph unicode="&#xb7;" horiz-adv-x="491" d="M109 596q0 53 41 91t96 38t97 -38t42 -91t-41 -91t-98 -38q-54 0 -95.5 38.5t-41.5 90.5z" />
<glyph unicode="&#xb8;" horiz-adv-x="1077" d="M102 -135l119 207h195l-109 -213q311 -14 489.5 -71.5t178.5 -149.5q0 -96 -242.5 -160.5t-630.5 -65.5v113q171 1 292.5 9t191 23.5t100.5 35t31 45.5q0 27 -31 47t-101 35.5t-190.5 24.5t-292.5 11v109z" />
<glyph unicode="&#xbb;" horiz-adv-x="1812" d="M109 0l438 512l-438 512h307l422 -512l-422 -512h-307zM885 0l438 512l-438 512h307l422 -512l-422 -512h-307z" />
<glyph unicode="&#xbc;" horiz-adv-x="3282" d="M145 842v155l543 312h74v-979h-158v813zM860 -45l1409 1524h213l-1409 -1524h-213zM1980 309v92l746 703h264v-664h156v-131h-156v-184h-156v184h-854zM2183 440h651v615z" />
<glyph unicode="&#xbd;" horiz-adv-x="3551" d="M145 842v155l543 312h74v-979h-158v813zM858 -45l1409 1524h213l-1409 -1524h-213zM2410 125v84q44 23 122.5 62.5t134 68t132.5 68.5t132 72t118.5 71t106.5 72.5t80 68t55.5 67.5t18.5 62q0 93 -88 133.5t-302 40.5q-105 0 -261 -19t-199 -36v135q60 20 213.5 34.5 t283.5 14.5q265 0 388.5 -59.5t123.5 -216.5q0 -82 -71 -170.5t-187 -166.5t-239.5 -141.5t-251.5 -113.5h706v-131h-1016z" />
<glyph unicode="&#xbe;" horiz-adv-x="3297" d="M98 369v131q66 -29 197 -45.5t246 -16.5q233 0 339.5 33t106.5 102q0 40 -23.5 67.5t-77 49t-153.5 36t-237 25t-344 19.5v100q315 11 493 34.5t245.5 58t67.5 88.5q0 77 -97.5 114t-321.5 37q-113 0 -243 -17t-198 -46v131q82 30 212.5 46.5t242.5 16.5q99 0 172.5 -5.5 t148 -22t122 -45t77 -78t29.5 -117.5q0 -39 -15 -72t-37.5 -55.5t-58 -41t-66.5 -29.5t-74.5 -19t-70 -11.5t-64.5 -5.5t-47 -2h-28v-12q5 0 44 -1t68 -2.5t78 -7.5t86 -15.5t79.5 -27.5t69.5 -42.5t45.5 -62t18.5 -83.5q0 -78 -38.5 -132t-114 -83t-169.5 -41t-222 -12 q-321 0 -488 62zM874 -45l1410 1524h213l-1410 -1524h-213zM1995 303v92l745 703h264v-664h156v-131h-156v-184h-155v184h-854zM2198 434h651v615z" />
<glyph unicode="&#xbf;" horiz-adv-x="1519" d="M111 2q0 72 24.5 128.5t66 92.5t95.5 62.5t113.5 44t119 32t113.5 31t95.5 37.5t66 54.5t24.5 78.5h150q2 -14 2 -37q0 -66 -27.5 -118t-72.5 -83.5t-102.5 -58.5t-117 -44t-117 -38.5t-102.5 -44t-72.5 -59t-27.5 -84.5q0 -51 10 -86t38 -61.5t68 -42.5t110.5 -25.5 t155.5 -13t212 -3.5q214 0 502 43v-196q-270 -37 -574 -37q-156 0 -271 12t-209.5 41.5t-152.5 78t-89 122t-31 174.5zM766 946q0 53 41 91t98 38q54 0 95.5 -38.5t41.5 -90.5q0 -53 -41 -91t-96 -38t-97 38t-42 91z" />
<glyph unicode="&#xc0;" d="M74 0l882 1434h306l880 -1434h-258l-198 334h-1156l-196 -334h-260zM535 1860v208l587 -380v-164zM645 524h928l-463 791z" />
<glyph unicode="&#xc1;" d="M74 0l882 1434h306l880 -1434h-258l-198 334h-1156l-196 -334h-260zM645 524h928l-463 791zM1061 1524v164l588 380v-208z" />
<glyph unicode="&#xc2;" d="M74 0l882 1434h306l880 -1434h-258l-198 334h-1156l-196 -334h-260zM522 1546v164l588 381l588 -381v-164l-588 336zM645 524h928l-463 791z" />
<glyph unicode="&#xc3;" d="M74 0l882 1434h306l880 -1434h-258l-198 334h-1156l-196 -334h-260zM645 524h928l-463 791zM756 1583q1 119 71.5 192.5t180.5 73.5q44 0 84 -23t65.5 -50.5t59.5 -50.5t67 -23q59 0 93.5 36t35.5 109h123q-1 -120 -71.5 -193t-180.5 -73q-41 0 -76.5 15t-60.5 37t-47 44 t-45.5 37t-46.5 15q-57 0 -91.5 -37t-35.5 -109h-125z" />
<glyph unicode="&#xc4;" d="M74 0l882 1434h306l880 -1434h-258l-198 334h-1156l-196 -334h-260zM618 1686q0 78 56.5 126t146.5 48q97 0 150 -47t53 -127t-53.5 -127.5t-149.5 -47.5q-90 0 -146.5 48.5t-56.5 126.5zM645 524h928l-463 791zM1212 1686q0 78 56.5 126t146.5 48q97 0 150 -47t53 -127 t-53.5 -127.5t-149.5 -47.5q-90 0 -146.5 48.5t-56.5 126.5z" />
<glyph unicode="&#xc5;" d="M74 0l882 1434h306l880 -1434h-258l-198 334h-1156l-196 -334h-260zM592 1722q0 62 71.5 110.5t189 74.5t257.5 26q231 0 374.5 -58t143.5 -153t-143.5 -153t-374.5 -58q-140 0 -257.5 26t-189 74.5t-71.5 110.5zM645 524h928l-463 791zM928 1722q0 -52 50 -79t132 -27 q81 0 133.5 27.5t52.5 76.5q0 54 -50 81.5t-136 27.5q-81 0 -131.5 -27.5t-50.5 -79.5z" />
<glyph unicode="&#xc6;" horiz-adv-x="2910" d="M74 0l1202 1434h1468v-168h-1091v-463h1073v-150h-1073v-485h1091v-168h-1321v334h-811l-268 -334h-270zM743 496l11 6h669v837z" />
<glyph unicode="&#xc7;" horiz-adv-x="1914" d="M94 717q0 223 107.5 393.5t303.5 263t453 92.5t453.5 -81.5t304 -231t107.5 -344.5h-234q-9 216 -181 341.5t-450 125.5q-288 0 -461 -150.5t-173 -408.5q0 -257 173.5 -408t460.5 -151q279 0 451.5 126t179.5 341h234q0 -192 -105 -341t-297 -231.5t-442 -85.5l-55 -108 q311 -14 489 -71.5t178 -149.5q0 -96 -242 -160.5t-630 -65.5v113q171 1 292 9t190.5 23.5t100.5 35t31 45.5q0 27 -30.5 47t-100.5 35.5t-190.5 24.5t-292.5 11v109l65 115q-316 44 -503 242.5t-187 494.5z" />
<glyph unicode="&#xc8;" horiz-adv-x="1658" d="M186 0v1434h1307v-191h-1077v-428h1059v-174h-1059v-451h1077v-190h-1307zM279 1860v208l587 -380v-164z" />
<glyph unicode="&#xc9;" horiz-adv-x="1658" d="M186 0v1434h1307v-191h-1077v-428h1059v-174h-1059v-451h1077v-190h-1307zM805 1524v164l588 380v-208z" />
<glyph unicode="&#xca;" horiz-adv-x="1658" d="M186 0v1434h1307v-191h-1077v-428h1059v-174h-1059v-451h1077v-190h-1307zM266 1546v164l588 381l588 -381v-164l-588 336z" />
<glyph unicode="&#xcb;" horiz-adv-x="1658" d="M186 0v1434h1307v-191h-1077v-428h1059v-174h-1059v-451h1077v-190h-1307zM362 1686q0 78 56.5 126t146.5 48q97 0 150 -47t53 -127t-53.5 -127.5t-149.5 -47.5q-90 0 -146.5 48.5t-56.5 126.5zM956 1686q0 78 56.5 126t146.5 48q97 0 150 -47t53 -127t-53.5 -127.5 t-149.5 -47.5q-90 0 -146.5 48.5t-56.5 126.5z" />
<glyph unicode="&#xcc;" horiz-adv-x="604" d="M-274 1860v208l587 -380v-164zM186 0v1434h230v-1434h-230z" />
<glyph unicode="&#xcd;" horiz-adv-x="604" d="M186 0v1434h230v-1434h-230zM252 1524v164l588 380v-208z" />
<glyph unicode="&#xce;" horiz-adv-x="604" d="M-287 1546v164l588 381l588 -381v-164l-588 336zM186 0v1434h230v-1434h-230z" />
<glyph unicode="&#xcf;" horiz-adv-x="604" d="M-190 1686q0 78 56 126t146 48q97 0 150 -47t53 -127t-53.5 -127.5t-149.5 -47.5q-89 0 -145.5 48.5t-56.5 126.5zM186 0v1434h230v-1434h-230zM403 1686q0 78 56.5 126t146.5 48q97 0 150 -47t53 -127t-53.5 -127.5t-149.5 -47.5q-90 0 -146.5 48.5t-56.5 126.5z" />
<glyph unicode="&#xd0;" horiz-adv-x="1783" d="M41 633v170h145v631h668q394 0 615 -185t221 -532q0 -350 -221 -533.5t-615 -183.5h-668v633h-145zM416 190h438q284 0 456.5 142.5t172.5 384.5t-172.5 384t-456.5 142h-438v-440h649v-170h-649v-443z" />
<glyph unicode="&#xd1;" horiz-adv-x="1980" d="M186 0v1434h234l1145 -1155v1155h229v-1434h-235l-1143 1153v-1153h-230zM647 1583q1 119 71.5 192.5t180.5 73.5q36 0 69 -15t57 -36.5t47 -43.5t50 -37t54 -15q59 0 93.5 36t35.5 109h122q-1 -120 -71 -193t-180 -73q-41 0 -76.5 15t-61 37t-47.5 44t-45.5 37t-46.5 15 q-57 0 -91.5 -37t-35.5 -109h-125z" />
<glyph unicode="&#xd2;" horiz-adv-x="1998" d="M94 717q0 340 244 544.5t661 204.5q418 0 663 -204.5t245 -544.5t-245 -545t-663 -205q-417 0 -661 205t-244 545zM324 717q0 -256 185.5 -407.5t489.5 -151.5q307 0 492.5 151.5t185.5 407.5q0 257 -185.5 408t-492.5 151q-305 0 -490 -151t-185 -408zM426 1860v208 l588 -380v-164z" />
<glyph unicode="&#xd3;" horiz-adv-x="1998" d="M94 717q0 340 244 544.5t661 204.5q418 0 663 -204.5t245 -544.5t-245 -545t-663 -205q-417 0 -661 205t-244 545zM324 717q0 -256 185.5 -407.5t489.5 -151.5q307 0 492.5 151.5t185.5 407.5q0 257 -185.5 408t-492.5 151q-305 0 -490 -151t-185 -408zM952 1524v164 l588 380v-208z" />
<glyph unicode="&#xd4;" horiz-adv-x="1998" d="M94 717q0 340 244 544.5t661 204.5q418 0 663 -204.5t245 -544.5t-245 -545t-663 -205q-417 0 -661 205t-244 545zM324 717q0 -256 185.5 -407.5t489.5 -151.5q307 0 492.5 151.5t185.5 407.5q0 257 -185.5 408t-492.5 151q-305 0 -490 -151t-185 -408zM414 1546v164 l587 381l588 -381v-164l-588 336z" />
<glyph unicode="&#xd5;" horiz-adv-x="1998" d="M94 717q0 340 244 544.5t661 204.5q418 0 663 -204.5t245 -544.5t-245 -545t-663 -205q-417 0 -661 205t-244 545zM324 717q0 -256 185.5 -407.5t489.5 -151.5q307 0 492.5 151.5t185.5 407.5q0 257 -185.5 408t-492.5 151q-305 0 -490 -151t-185 -408zM647 1583 q1 119 71.5 192.5t180.5 73.5q36 0 69 -15t57 -36.5t47 -43.5t50 -37t54 -15q59 0 93.5 36t35.5 109h122q-1 -120 -71 -193t-180 -73q-41 0 -76.5 15t-61 37t-47.5 44t-45.5 37t-46.5 15q-57 0 -91.5 -37t-35.5 -109h-125z" />
<glyph unicode="&#xd6;" horiz-adv-x="1998" d="M94 717q0 340 244 544.5t661 204.5q418 0 663 -204.5t245 -544.5t-245 -545t-663 -205q-417 0 -661 205t-244 545zM324 717q0 -256 185.5 -407.5t489.5 -151.5q307 0 492.5 151.5t185.5 407.5q0 257 -185.5 408t-492.5 151q-305 0 -490 -151t-185 -408zM510 1686 q0 78 56.5 126t146.5 48q96 0 149 -47t53 -127t-53 -127.5t-149 -47.5q-90 0 -146.5 48.5t-56.5 126.5zM1104 1686q0 78 56.5 126t146.5 48q96 0 149 -47t53 -127t-53 -127.5t-149 -47.5q-90 0 -146.5 48.5t-56.5 126.5z" />
<glyph unicode="&#xd7;" horiz-adv-x="1228" d="M158 995l121 117l315 -315l317 319l117 -121l-315 -317l315 -316l-117 -120l-317 315l-318 -315l-116 120l313 316z" />
<glyph unicode="&#xd8;" horiz-adv-x="2023" d="M25 0l262 221q-193 196 -193 496q0 340 244 544.5t661 204.5q356 0 590 -151l140 119h258l-269 -226q189 -195 189 -491q0 -340 -245 -545t-663 -205q-345 0 -581 148l-135 -115h-258zM324 717q0 -214 131 -357l966 814q-169 102 -422 102q-305 0 -490 -151t-185 -408z M586 256q173 -98 413 -98q307 0 492.5 151.5t185.5 407.5q0 209 -125 350z" />
<glyph unicode="&#xd9;" horiz-adv-x="1847" d="M186 768v666h230v-727q0 -284 121 -417.5t387 -133.5t386 133.5t120 417.5v727h229v-666q0 -181 -32 -317.5t-91 -228t-151 -149t-204 -82t-257 -24.5t-257.5 24.5t-204.5 82t-152 149t-92 228t-32 317.5zM348 1860v208l588 -380v-164z" />
<glyph unicode="&#xda;" horiz-adv-x="1847" d="M186 768v666h230v-727q0 -284 121 -417.5t387 -133.5t386 133.5t120 417.5v727h229v-666q0 -181 -32 -317.5t-91 -228t-151 -149t-204 -82t-257 -24.5t-257.5 24.5t-204.5 82t-152 149t-92 228t-32 317.5zM874 1524v164l588 380v-208z" />
<glyph unicode="&#xdb;" horiz-adv-x="1847" d="M186 768v666h230v-727q0 -284 121 -417.5t387 -133.5t386 133.5t120 417.5v727h229v-666q0 -181 -32 -317.5t-91 -228t-151 -149t-204 -82t-257 -24.5t-257.5 24.5t-204.5 82t-152 149t-92 228t-32 317.5zM336 1546v164l588 381l587 -381v-164l-587 336z" />
<glyph unicode="&#xdc;" horiz-adv-x="1847" d="M186 768v666h230v-727q0 -284 121 -417.5t387 -133.5t386 133.5t120 417.5v727h229v-666q0 -181 -32 -317.5t-91 -228t-151 -149t-204 -82t-257 -24.5t-257.5 24.5t-204.5 82t-152 149t-92 228t-32 317.5zM432 1686q0 78 56.5 126t146.5 48q97 0 150 -47t53 -127 t-53.5 -127.5t-149.5 -47.5q-90 0 -146.5 48.5t-56.5 126.5zM1026 1686q0 78 56.5 126t146.5 48q97 0 150 -47t53 -127t-53.5 -127.5t-149.5 -47.5q-90 0 -146.5 48.5t-56.5 126.5z" />
<glyph unicode="&#xdd;" horiz-adv-x="1777" d="M51 1434h281l557 -754l557 754h280l-722 -969v-465h-230v463zM840 1524v164l587 380v-208z" />
<glyph unicode="&#xde;" horiz-adv-x="1654" d="M170 0v1434h236v-410h727q109 0 200 -34.5t152 -94.5t95 -139.5t34 -169.5q0 -211 -133 -323.5t-348 -112.5h-725v-150h-238zM406 854l2 -535h673q133 0 218 76.5t85 190.5t-85 191t-218 77h-675z" />
<glyph unicode="&#xdf;" horiz-adv-x="1722" d="M109 0v1434h675q111 0 183 -1.5t165.5 -9.5t152.5 -22t123 -40.5t99.5 -64t58.5 -93.5t23 -128q0 -181 -160.5 -262.5t-515.5 -81.5v-18q376 -12 546.5 -91t170.5 -239q0 -85 -27.5 -151.5t-82 -112t-126 -76.5t-170 -47.5t-203 -23t-235.5 -5.5q-132 4 -206 8v189 q99 -6 186 -6q126 0 211.5 3t164.5 12t126.5 24.5t84 42t51.5 63.5t15 88q0 48 -12 81t-48 61.5t-91.5 46t-154 32.5t-223 25t-310.5 20v138q164 9 278 18t207.5 23t150 31.5t95 43t53 57.5t14.5 76q0 80 -47.5 119.5t-177 57.5t-389.5 18h-426v-1239h-229z" />
<glyph unicode="&#xe0;" horiz-adv-x="1376" d="M94 238q0 62 33 113t85 85.5t129 62t150 43t164 28t155.5 17.5t140.5 10.5t104 8.5q-1 160 -80 221.5t-270 61.5q-210 0 -482 -117v174q303 111 563 111q258 0 378 -126.5t120 -352.5v-578h-231l61 367h-14q-44 -202 -211 -301t-414 -99q-53 0 -99 5t-100 22t-92 45.5 t-64 79.5t-26 119zM158 1450v209l587 -381v-164zM336 264q0 -61 57.5 -95t161.5 -34q128 0 237.5 36.5t181.5 113.5t75 180q-31 -3 -86.5 -6.5t-100 -6.5t-103.5 -7.5t-106 -11.5t-97.5 -16.5t-88 -24t-68.5 -32t-47 -42.5t-16 -54z" />
<glyph unicode="&#xe1;" horiz-adv-x="1376" d="M94 238q0 62 33 113t85 85.5t129 62t150 43t164 28t155.5 17.5t140.5 10.5t104 8.5q-1 160 -80 221.5t-270 61.5q-210 0 -482 -117v174q303 111 563 111q258 0 378 -126.5t120 -352.5v-578h-231l61 367h-14q-44 -202 -211 -301t-414 -99q-53 0 -99 5t-100 22t-92 45.5 t-64 79.5t-26 119zM336 264q0 -61 57.5 -95t161.5 -34q128 0 237.5 36.5t181.5 113.5t75 180q-31 -3 -86.5 -6.5t-100 -6.5t-103.5 -7.5t-106 -11.5t-97.5 -16.5t-88 -24t-68.5 -32t-47 -42.5t-16 -54zM684 1114v164l588 381v-209z" />
<glyph unicode="&#xe2;" horiz-adv-x="1376" d="M94 238q0 62 33 113t85 85.5t129 62t150 43t164 28t155.5 17.5t140.5 10.5t104 8.5q-1 160 -80 221.5t-270 61.5q-210 0 -482 -117v174q303 111 563 111q258 0 378 -126.5t120 -352.5v-578h-231l61 367h-14q-44 -202 -211 -301t-414 -99q-53 0 -99 5t-100 22t-92 45.5 t-64 79.5t-26 119zM145 1137v163l588 381l588 -381v-163l-588 336zM336 264q0 -61 57.5 -95t161.5 -34q128 0 237.5 36.5t181.5 113.5t75 180q-31 -3 -86.5 -6.5t-100 -6.5t-103.5 -7.5t-106 -11.5t-97.5 -16.5t-88 -24t-68.5 -32t-47 -42.5t-16 -54z" />
<glyph unicode="&#xe3;" horiz-adv-x="1376" d="M94 238q0 62 33 113t85 85.5t129 62t150 43t164 28t155.5 17.5t140.5 10.5t104 8.5q-1 160 -80 221.5t-270 61.5q-210 0 -482 -117v174q303 111 563 111q258 0 378 -126.5t120 -352.5v-578h-231l61 367h-14q-44 -202 -211 -301t-414 -99q-53 0 -99 5t-100 22t-92 45.5 t-64 79.5t-26 119zM336 264q0 -61 57.5 -95t161.5 -34q128 0 237.5 36.5t181.5 113.5t75 180q-31 -3 -86.5 -6.5t-100 -6.5t-103.5 -7.5t-106 -11.5t-97.5 -16.5t-88 -24t-68.5 -32t-47 -42.5t-16 -54zM379 1174q1 119 71.5 192.5t180.5 73.5q36 0 68.5 -15t57 -37t47.5 -44 t49.5 -37t53.5 -15q59 0 93.5 36.5t35.5 109.5h123q-1 -120 -71.5 -193.5t-180.5 -73.5q-41 0 -76.5 15t-60.5 37t-47 44t-45.5 37t-46.5 15q-57 0 -91.5 -37t-35.5 -108h-125z" />
<glyph unicode="&#xe4;" horiz-adv-x="1376" d="M94 238q0 62 33 113t85 85.5t129 62t150 43t164 28t155.5 17.5t140.5 10.5t104 8.5q-1 160 -80 221.5t-270 61.5q-210 0 -482 -117v174q303 111 563 111q258 0 378 -126.5t120 -352.5v-578h-231l61 367h-14q-44 -202 -211 -301t-414 -99q-53 0 -99 5t-100 22t-92 45.5 t-64 79.5t-26 119zM242 1276q0 78 56 126t146 48q97 0 150 -47t53 -127t-53 -127t-150 -47q-90 0 -146 48t-56 126zM336 264q0 -61 57.5 -95t161.5 -34q128 0 237.5 36.5t181.5 113.5t75 180q-31 -3 -86.5 -6.5t-100 -6.5t-103.5 -7.5t-106 -11.5t-97.5 -16.5t-88 -24 t-68.5 -32t-47 -42.5t-16 -54zM836 1276q0 78 56 126t146 48q97 0 150 -47t53 -127t-53 -127t-150 -47q-90 0 -146 48t-56 126z" />
<glyph unicode="&#xe5;" horiz-adv-x="1376" d="M94 238q0 62 33 113t85 85.5t129 62t150 43t164 28t155.5 17.5t140.5 10.5t104 8.5q-1 160 -80 221.5t-270 61.5q-210 0 -482 -117v174q303 111 563 111q258 0 378 -126.5t120 -352.5v-578h-231l61 367h-14q-44 -202 -211 -301t-414 -99q-53 0 -99 5t-100 22t-92 45.5 t-64 79.5t-26 119zM215 1313q0 62 71.5 110.5t189 74.5t257.5 26q231 0 374.5 -58t143.5 -153t-143.5 -153t-374.5 -58q-140 0 -257.5 26t-189 74.5t-71.5 110.5zM336 264q0 -61 57.5 -95t161.5 -34q128 0 237.5 36.5t181.5 113.5t75 180q-31 -3 -86.5 -6.5t-100 -6.5 t-103.5 -7.5t-106 -11.5t-97.5 -16.5t-88 -24t-68.5 -32t-47 -42.5t-16 -54zM551 1313q0 -52 50.5 -79.5t131.5 -27.5t134 28t53 77q0 54 -50 81t-137 27q-82 0 -132 -27t-50 -79z" />
<glyph unicode="&#xe6;" horiz-adv-x="2375" d="M94 238q0 48 19.5 90t52 73.5t82 58t100.5 45t117 34t122.5 24.5t126 17.5t118.5 12.5t109 9t89 8q-1 71 -11.5 118t-31.5 79.5t-60.5 50t-91 24.5t-130.5 7q-113 0 -241.5 -31.5t-240.5 -79.5v168q303 111 563 111q287 0 402 -176q170 176 477 176q275 0 443 -127.5 t173 -337.5v-168h-1019q24 -154 143.5 -219.5t361.5 -65.5q72 0 130 5.5t113 21.5t78.5 23.5t81.5 33.5t66 29v-184q-162 -61 -274.5 -81t-296.5 -20q-229 0 -386.5 103.5t-207.5 281.5q-99 -385 -596 -385q-53 0 -99 5t-100 22t-92 45.5t-64 79.5t-26 119zM336 264 q0 -61 56.5 -95t158.5 -34q130 0 236.5 36.5t174.5 113t70 182.5q-33 -3 -88.5 -7t-99.5 -7.5t-102 -9t-103 -12.5t-94 -16.5t-84.5 -23.5t-65 -32t-44.5 -42t-15 -53zM1260 565l806 17q-4 169 -97 237t-304 68q-207 0 -301.5 -72t-103.5 -250z" />
<glyph unicode="&#xe7;" horiz-adv-x="1294" d="M94 512q0 247 176 396t467 149q131 0 230.5 -25.5t232.5 -85.5v-186q-226 127 -409 127q-241 0 -353 -84.5t-112 -290.5q0 -205 113.5 -290t357.5 -85q114 0 208.5 27.5t194.5 91.5v-178q-135 -60 -221.5 -84t-214.5 -27l-55 -108q311 -14 489 -71.5t178 -149.5 q0 -96 -242 -160.5t-630 -65.5v113q171 1 292 9t190.5 23.5t100.5 35t31 45.5q0 27 -30.5 47t-100.5 35.5t-190.5 24.5t-292.5 11v109l67 117q-217 42 -347 184t-130 346z" />
<glyph unicode="&#xe8;" horiz-adv-x="1419" d="M94 512q0 246 169.5 395.5t447.5 149.5q275 0 443 -127.5t173 -337.5v-168h-1020q24 -153 144.5 -219t361.5 -66q72 0 130 5.5t113 21.5t78.5 23.5t81.5 33.5t66 29v-184q-162 -61 -275.5 -81t-295.5 -20q-278 0 -447.5 149.5t-169.5 395.5zM174 1450v209l588 -381v-164z M303 565l809 17q-4 168 -97.5 236.5t-303.5 68.5q-206 0 -301 -73t-107 -249z" />
<glyph unicode="&#xe9;" horiz-adv-x="1419" d="M94 512q0 246 169.5 395.5t447.5 149.5q275 0 443 -127.5t173 -337.5v-168h-1020q24 -153 144.5 -219t361.5 -66q72 0 130 5.5t113 21.5t78.5 23.5t81.5 33.5t66 29v-184q-162 -61 -275.5 -81t-295.5 -20q-278 0 -447.5 149.5t-169.5 395.5zM303 565l809 17 q-4 168 -97.5 236.5t-303.5 68.5q-206 0 -301 -73t-107 -249zM662 1114v164l587 381v-209z" />
<glyph unicode="&#xea;" horiz-adv-x="1419" d="M94 512q0 246 169.5 395.5t447.5 149.5q275 0 443 -127.5t173 -337.5v-168h-1020q24 -153 144.5 -219t361.5 -66q72 0 130 5.5t113 21.5t78.5 23.5t81.5 33.5t66 29v-184q-162 -61 -275.5 -81t-295.5 -20q-278 0 -447.5 149.5t-169.5 395.5zM123 1137v163l588 381 l587 -381v-163l-587 336zM303 565l809 17q-4 168 -97.5 236.5t-303.5 68.5q-206 0 -301 -73t-107 -249z" />
<glyph unicode="&#xeb;" horiz-adv-x="1419" d="M94 512q0 246 169.5 395.5t447.5 149.5q275 0 443 -127.5t173 -337.5v-168h-1020q24 -153 144.5 -219t361.5 -66q72 0 130 5.5t113 21.5t78.5 23.5t81.5 33.5t66 29v-184q-162 -61 -275.5 -81t-295.5 -20q-278 0 -447.5 149.5t-169.5 395.5zM219 1276q0 78 56.5 126 t146.5 48q97 0 150 -47t53 -127t-53 -127t-150 -47q-90 0 -146.5 48t-56.5 126zM303 565l809 17q-4 168 -97.5 236.5t-303.5 68.5q-206 0 -301 -73t-107 -249zM813 1276q0 78 56.5 126t146.5 48q97 0 150 -47t53 -127t-53 -127t-150 -47q-90 0 -146.5 48t-56.5 126z" />
<glyph unicode="&#xec;" horiz-adv-x="360" d="M-395 1444v209l588 -381v-164zM66 0v1024h229v-1024h-229z" />
<glyph unicode="&#xed;" horiz-adv-x="360" d="M66 0v1024h229v-1024h-229zM131 1108v164l588 381v-209z" />
<glyph unicode="&#xee;" horiz-adv-x="360" d="M-408 1130v164l588 381l588 -381v-164l-588 336zM66 0v1024h229v-1024h-229z" />
<glyph unicode="&#xef;" horiz-adv-x="360" d="M-311 1270q0 78 56 126t146 48q97 0 150 -47t53 -127t-53 -127t-150 -47q-90 0 -146 48t-56 126zM66 0v1024h229v-1024h-229zM283 1270q0 78 56 126t146 48q97 0 150 -47t53 -127t-53 -127t-150 -47q-90 0 -146 48t-56 126z" />
<glyph unicode="&#xf0;" horiz-adv-x="1669" d="M61 455q0 107 39 194.5t117.5 153.5t205 102.5t292.5 36.5q111 0 216 -28t187.5 -74.5t144.5 -96t109 -104.5q4 66 4 102q0 273 -147 445l-477 -139l-58 155l381 111q-154 88 -381 108l8 125q347 0 586 -172l305 88l60 -153l-223 -66q176 -207 176 -502 q0 -385 -205.5 -575.5t-589.5 -190.5q-353 0 -551.5 130t-198.5 350zM293 485q0 -153 147 -247.5t389 -94.5q220 0 343.5 75.5t170.5 240.5q-69 154 -233.5 262t-343.5 108q-213 0 -343 -94.5t-130 -249.5z" />
<glyph unicode="&#xf1;" horiz-adv-x="1402" d="M150 0v1024h258l-41 -422h12q15 93 53 173t98 144t149.5 101t197.5 37q221 -3 328.5 -153.5t107.5 -459.5v-444h-230v410q0 247 -73 361t-232 114q-187 0 -293 -169.5t-106 -463.5v-252h-229zM446 1174q1 119 71.5 192.5t180.5 73.5q36 0 69 -15t57 -37t47 -44t50 -37 t54 -15q59 0 93.5 36.5t35.5 109.5h123q-1 -120 -71.5 -193.5t-180.5 -73.5q-41 0 -76.5 15t-61 37t-47.5 44t-45.5 37t-46.5 15q-57 0 -91.5 -37t-35.5 -108h-125z" />
<glyph unicode="&#xf2;" horiz-adv-x="1456" d="M94 512q0 246 173.5 395.5t459.5 149.5q287 0 461 -149.5t174 -395.5t-174 -395.5t-461 -149.5q-286 0 -459.5 149.5t-173.5 395.5zM154 1450v209l587 -381v-164zM303 512q0 -168 117 -271.5t307 -103.5q192 0 309 103.5t117 271.5t-117 271.5t-309 103.5 q-190 0 -307 -103.5t-117 -271.5z" />
<glyph unicode="&#xf3;" horiz-adv-x="1456" d="M94 512q0 246 173.5 395.5t459.5 149.5q287 0 461 -149.5t174 -395.5t-174 -395.5t-461 -149.5q-286 0 -459.5 149.5t-173.5 395.5zM303 512q0 -168 117 -271.5t307 -103.5q192 0 309 103.5t117 271.5t-117 271.5t-309 103.5q-190 0 -307 -103.5t-117 -271.5zM680 1114 v164l588 381v-209z" />
<glyph unicode="&#xf4;" horiz-adv-x="1456" d="M94 512q0 246 173.5 395.5t459.5 149.5q287 0 461 -149.5t174 -395.5t-174 -395.5t-461 -149.5q-286 0 -459.5 149.5t-173.5 395.5zM141 1137v163l588 381l588 -381v-163l-588 336zM303 512q0 -168 117 -271.5t307 -103.5q192 0 309 103.5t117 271.5t-117 271.5 t-309 103.5q-190 0 -307 -103.5t-117 -271.5z" />
<glyph unicode="&#xf5;" horiz-adv-x="1456" d="M94 512q0 246 173.5 395.5t459.5 149.5q287 0 461 -149.5t174 -395.5t-174 -395.5t-461 -149.5q-286 0 -459.5 149.5t-173.5 395.5zM303 512q0 -168 117 -271.5t307 -103.5q192 0 309 103.5t117 271.5t-117 271.5t-309 103.5q-190 0 -307 -103.5t-117 -271.5zM375 1174 q1 119 71.5 192.5t180.5 73.5q36 0 68.5 -15t57 -37t47.5 -44t49.5 -37t53.5 -15q59 0 93.5 36.5t35.5 109.5h123q-1 -120 -71.5 -193.5t-180.5 -73.5q-41 0 -76.5 15t-60.5 37t-47 44t-45.5 37t-46.5 15q-57 0 -91.5 -37t-35.5 -108h-125z" />
<glyph unicode="&#xf6;" horiz-adv-x="1456" d="M94 512q0 246 173.5 395.5t459.5 149.5q287 0 461 -149.5t174 -395.5t-174 -395.5t-461 -149.5q-286 0 -459.5 149.5t-173.5 395.5zM238 1276q0 78 56 126t146 48q97 0 150 -47t53 -127t-53 -127t-150 -47q-90 0 -146 48t-56 126zM303 512q0 -168 117 -271.5t307 -103.5 q192 0 309 103.5t117 271.5t-117 271.5t-309 103.5q-190 0 -307 -103.5t-117 -271.5zM831 1276q0 78 56.5 126t146.5 48q97 0 150 -47t53 -127t-53 -127t-150 -47q-90 0 -146.5 48t-56.5 126z" />
<glyph unicode="&#xf7;" horiz-adv-x="1228" d="M84 496v170h1065v-170h-1065zM481 92q0 53 41 91t96 38t97.5 -38t42.5 -91t-41.5 -91t-98.5 -38q-54 0 -95.5 38.5t-41.5 90.5zM481 1032q0 53 41 91t96 38t97.5 -38t42.5 -91t-41.5 -91t-98.5 -38q-54 0 -95.5 38.5t-41.5 90.5z" />
<glyph unicode="&#xf8;" horiz-adv-x="1456" d="M2 0l209 176q-117 135 -117 336q0 246 173.5 395.5t459.5 149.5q239 0 403 -107l89 74h258l-222 -186q107 -138 107 -326q0 -246 -174 -395.5t-461 -149.5q-226 0 -389 99l-78 -66h-258zM303 512q0 -116 62 -207l616 518q-109 64 -254 64q-190 0 -307 -103.5t-117 -271.5 zM489 193q106 -56 238 -56q192 0 309 103.5t117 271.5q0 112 -53 195z" />
<glyph unicode="&#xf9;" horiz-adv-x="1402" d="M76 1450v209l588 -381v-164zM90 580v444h229v-410q0 -247 73.5 -361t232.5 -114q187 0 293 169.5t106 463.5v252h229v-1024h-258l41 422h-12q-15 -93 -53 -173t-98 -144t-149.5 -101t-197.5 -37q-221 3 -328.5 153.5t-107.5 459.5z" />
<glyph unicode="&#xfa;" horiz-adv-x="1402" d="M90 580v444h229v-410q0 -247 73.5 -361t232.5 -114q187 0 293 169.5t106 463.5v252h229v-1024h-258l41 422h-12q-15 -93 -53 -173t-98 -144t-149.5 -101t-197.5 -37q-221 3 -328.5 153.5t-107.5 459.5zM602 1114v164l588 381v-209z" />
<glyph unicode="&#xfb;" horiz-adv-x="1402" d="M63 1137v163l588 381l588 -381v-163l-588 336zM90 580v444h229v-410q0 -247 73.5 -361t232.5 -114q187 0 293 169.5t106 463.5v252h229v-1024h-258l41 422h-12q-15 -93 -53 -173t-98 -144t-149.5 -101t-197.5 -37q-221 3 -328.5 153.5t-107.5 459.5z" />
<glyph unicode="&#xfc;" horiz-adv-x="1402" d="M90 580v444h229v-410q0 -247 73.5 -361t232.5 -114q187 0 293 169.5t106 463.5v252h229v-1024h-258l41 422h-12q-15 -93 -53 -173t-98 -144t-149.5 -101t-197.5 -37q-221 3 -328.5 153.5t-107.5 459.5zM160 1276q0 78 56 126t146 48q97 0 150 -47t53 -127t-53 -127 t-150 -47q-90 0 -146 48t-56 126zM754 1276q0 78 56 126t146 48q97 0 150 -47t53 -127t-53 -127t-150 -47q-90 0 -146 48t-56 126z" />
<glyph unicode="&#xfd;" horiz-adv-x="1546" d="M51 1024h246l491 -844l482 844h225l-801 -1434h-225l229 400zM752 1114v164l587 381v-209z" />
<glyph unicode="&#xfe;" horiz-adv-x="1374" d="M61 -410v1844h238l-45 -744h25q37 184 182 275.5t354 91.5q215 0 356.5 -154t141.5 -399q0 -236 -142.5 -386.5t-359.5 -150.5q-203 0 -339 91.5t-173 273.5h-8v-742h-230zM360 508q0 -102 29.5 -180t81 -123.5t115 -68.5t137.5 -23q178 0 269 100.5t91 294.5 q0 197 -91 300t-269 103q-74 0 -137.5 -23.5t-115 -70.5t-81 -126.5t-29.5 -182.5z" />
<glyph unicode="&#xff;" horiz-adv-x="1546" d="M51 1024h246l491 -844l482 844h225l-801 -1434h-225l229 400zM309 1276q0 78 56.5 126t146.5 48q97 0 150 -47t53 -127t-53 -127t-150 -47q-90 0 -146.5 48t-56.5 126zM903 1276q0 78 56.5 126t146.5 48q97 0 150 -47t53 -127t-53 -127t-150 -47q-90 0 -146.5 48 t-56.5 126z" />
<glyph unicode="&#x152;" horiz-adv-x="3180" d="M94 717q0 340 244 544.5t661 204.5q229 0 409 -63t300 -182v213h1307v-191h-1078v-428h1059v-174h-1059v-451h1078v-190h-1307v213q-120 -119 -300 -182.5t-409 -63.5q-417 0 -661 205t-244 545zM324 717q0 -256 185.5 -407.5t489.5 -151.5q307 0 492.5 151.5 t185.5 407.5q0 257 -185.5 408t-492.5 151q-305 0 -490 -151t-185 -408z" />
<glyph unicode="&#x153;" horiz-adv-x="2490" d="M94 512q0 246 173.5 395.5t459.5 149.5q178 0 316.5 -60t218.5 -170q79 110 213.5 170t306.5 60q275 0 443 -127.5t173 -337.5v-168h-1020q24 -153 144.5 -219t361.5 -66q72 0 130 5.5t113 21.5t78.5 23.5t81.5 33.5t66 29v-184q-162 -61 -275.5 -81t-295.5 -20 q-172 0 -306.5 60t-213.5 170q-80 -110 -218.5 -170t-316.5 -60q-286 0 -459.5 149.5t-173.5 395.5zM303 512q0 -168 117 -271.5t307 -103.5q192 0 309 103.5t117 271.5t-117 271.5t-309 103.5q-190 0 -307 -103.5t-117 -271.5zM1374 565l809 17q-4 168 -97.5 236.5 t-303.5 68.5q-206 0 -301 -73t-107 -249z" />
<glyph unicode="&#x178;" horiz-adv-x="1777" d="M51 1434h281l557 -754l557 754h280l-722 -969v-465h-230v463zM397 1686q0 78 56.5 126t146.5 48q97 0 150 -47t53 -127t-53.5 -127.5t-149.5 -47.5q-90 0 -146.5 48.5t-56.5 126.5zM991 1686q0 78 56.5 126t146.5 48q97 0 150 -47t53 -127t-53.5 -127.5t-149.5 -47.5 q-90 0 -146.5 48.5t-56.5 126.5z" />
<glyph unicode="&#x2c6;" horiz-adv-x="1380" d="M102 1137v163l588 381l588 -381v-163l-588 336z" />
<glyph unicode="&#x2dc;" horiz-adv-x="985" d="M102 1174q1 119 71.5 192.5t180.5 73.5q36 0 69 -15t57 -37t47 -44t50 -37t54 -15q59 0 93.5 36.5t35.5 109.5h123q-1 -120 -71.5 -193.5t-180.5 -73.5q-41 0 -76.5 15t-61 37t-47.5 44t-45.5 37t-46.5 15q-57 0 -91.5 -37t-35.5 -108h-125z" />
<glyph unicode="&#x2000;" horiz-adv-x="1045" />
<glyph unicode="&#x2001;" horiz-adv-x="2091" />
<glyph unicode="&#x2002;" horiz-adv-x="1045" />
<glyph unicode="&#x2003;" horiz-adv-x="2091" />
<glyph unicode="&#x2004;" horiz-adv-x="697" />
<glyph unicode="&#x2005;" horiz-adv-x="522" />
<glyph unicode="&#x2006;" horiz-adv-x="348" />
<glyph unicode="&#x2007;" horiz-adv-x="348" />
<glyph unicode="&#x2008;" horiz-adv-x="261" />
<glyph unicode="&#x2009;" horiz-adv-x="418" />
<glyph unicode="&#x200a;" horiz-adv-x="116" />
<glyph unicode="&#x2010;" horiz-adv-x="942" d="M61 592v170h820v-170h-820z" />
<glyph unicode="&#x2011;" horiz-adv-x="942" d="M61 592v170h820v-170h-820z" />
<glyph unicode="&#x2012;" horiz-adv-x="942" d="M61 592v170h820v-170h-820z" />
<glyph unicode="&#x2013;" horiz-adv-x="1146" d="M61 592v170h1024v-170h-1024z" />
<glyph unicode="&#x2014;" horiz-adv-x="2170" d="M61 592v170h2048v-170h-2048z" />
<glyph unicode="&#x2018;" horiz-adv-x="600" d="M199 881l231 553h109l-129 -553h-211z" />
<glyph unicode="&#x2019;" horiz-adv-x="600" d="M61 881l129 553h211l-231 -553h-109z" />
<glyph unicode="&#x201a;" horiz-adv-x="600" d="M61 -346l129 553h211l-231 -553h-109z" />
<glyph unicode="&#x201c;" horiz-adv-x="1054" d="M199 881l231 553h109l-129 -553h-211zM653 881l232 553h108l-129 -553h-211z" />
<glyph unicode="&#x201d;" horiz-adv-x="1054" d="M61 881l129 553h211l-231 -553h-109zM516 881l129 553h211l-231 -553h-109z" />
<glyph unicode="&#x201e;" horiz-adv-x="600" d="M61 -346l129 553h211l-231 -553h-109z" />
<glyph unicode="&#x2022;" horiz-adv-x="1083" d="M182 449q0 137 108.5 236t250.5 99q143 0 253.5 -99t110.5 -236t-107.5 -237.5t-256.5 -100.5q-141 0 -250 101.5t-109 236.5z" />
<glyph unicode="&#x2026;" horiz-adv-x="1853" d="M109 92q0 53 41 91t96 38t97 -38t42 -91t-41 -91t-98 -38q-54 0 -95.5 38.5t-41.5 90.5zM723 92q0 53 41 91t96 38t97 -38t42 -91t-41 -91t-98 -38q-54 0 -95.5 38.5t-41.5 90.5zM1337 92q0 53 41.5 91t96.5 38t97 -38t42 -91t-41 -91t-98 -38q-54 0 -96 38.5t-42 90.5z " />
<glyph unicode="&#x202f;" horiz-adv-x="418" />
<glyph unicode="&#x2039;" horiz-adv-x="851" d="M61 512l422 512h308l-439 -512l439 -512h-308z" />
<glyph unicode="&#x203a;" horiz-adv-x="851" d="M61 0l439 512l-439 512h308l422 -512l-422 -512h-308z" />
<glyph unicode="&#x205f;" horiz-adv-x="522" />
<glyph unicode="&#x20ac;" horiz-adv-x="2082" d="M16 469v209h238v39q0 31 2 45h-240v209h279q80 231 297.5 363t525.5 132q257 0 453 -81.5t303.5 -231t107.5 -344.5h-233q-9 216 -181 341.5t-450 125.5q-206 0 -357 -80t-222 -225h768v-209h-822q-2 -14 -2 -45q0 -27 2 -39h822v-209h-770q69 -148 220.5 -229.5 t360.5 -81.5q279 0 451.5 126t179.5 341h233q0 -195 -107.5 -345t-304 -231.5t-452.5 -81.5q-310 0 -528 134.5t-297 367.5h-277z" />
<glyph unicode="&#x2122;" horiz-adv-x="2678" d="M147 1305v129h1151v-129h-497v-850h-158v850h-496zM1386 455v979h195l422 -740l424 740h194v-979h-157v762l-447 -762h-26l-447 755v-755h-158z" />
<glyph unicode="&#x25fc;" horiz-adv-x="1024" d="M0 0v1024h1024v-1024h-1024z" />
</font>
</defs>
</svg>
