<?xml version="1.0" standalone="no"?>
<!DOCTYPE svg PUBLIC "-//W3C//DTD SVG 1.1//EN" "http://www.w3.org/Graphics/SVG/1.1/DTD/svg11.dtd" >
<svg xmlns="http://www.w3.org/2000/svg" xmlns:xlink="http://www.w3.org/1999/xlink" version="1.1">
<metadata></metadata>
<defs>
<font id="adieubold" horiz-adv-x="2248" >
<font-face units-per-em="2048" ascent="1638" descent="-410" />
<missing-glyph horiz-adv-x="614" />
<glyph horiz-adv-x="0" />
<glyph horiz-adv-x="682" />
<glyph unicode=" "  horiz-adv-x="614" />
<glyph unicode="&#x09;" horiz-adv-x="614" />
<glyph unicode="&#xa0;" horiz-adv-x="614" />
<glyph unicode="!" horiz-adv-x="620" d="M98 164q0 87 54.5 137.5t144.5 50.5q89 0 145 -51t56 -137q0 -88 -54.5 -139.5t-146.5 -51.5q-90 0 -144.5 52t-54.5 139zM127 1434h369l-21 -832h-328z" />
<glyph unicode="&#x22;" horiz-adv-x="825" d="M61 1434h310l-68 -553h-207zM453 1434h311l-68 -553h-209z" />
<glyph unicode="#" horiz-adv-x="2066" d="M61 375l37 229h353l41 191h-365l37 229h377l88 410h319l-88 -410h526l89 410h319l-88 -410h299l-37 -229h-311l-41 -191h323l-36 -229h-338l-80 -375h-320l80 375h-526l-80 -375h-320l80 375h-338zM770 604h526l41 191h-526z" />
<glyph unicode="$" horiz-adv-x="1767" d="M86 467h373q-2 -80 103.5 -139t311.5 -62q486 -4 486 162q0 40 -35 67t-94.5 40t-139 22.5t-169 13.5t-184 15t-184 24.5t-169 44t-139 72.5t-94.5 110.5t-35 157.5q0 184 150.5 304.5t410.5 154.5v256h383v-254q276 -36 439.5 -166t166.5 -323h-375q2 82 -94.5 140.5 t-296.5 59.5q-428 7 -428 -155q0 -43 42.5 -70.5t114.5 -41t165 -22t196 -18t205.5 -23t195.5 -42.5t165 -71.5t114.5 -115t42.5 -168.5q0 -194 -176 -317t-477 -150v-198h-383v207q-279 40 -437.5 168.5t-154.5 316.5z" />
<glyph unicode="%" horiz-adv-x="2127" d="M102 1198q0 75 59.5 134t156.5 90.5t212 31.5q191 0 309.5 -70.5t118.5 -185.5t-118.5 -185.5t-309.5 -70.5q-115 0 -212 31.5t-156.5 90.5t-59.5 134zM225 0l1426 1434h272l-1423 -1434h-275zM348 1198q0 -67 50 -105t132 -38t133.5 37t51.5 102q0 70 -50.5 109.5 t-134.5 39.5q-81 0 -131.5 -38.5t-50.5 -106.5zM1169 236q0 75 59.5 134t156.5 90.5t212 31.5q191 0 309.5 -70.5t118.5 -185.5t-118.5 -185.5t-309.5 -70.5q-115 0 -212 31.5t-156.5 90.5t-59.5 134zM1415 236q0 -68 51 -107t131 -39q83 0 134 37.5t51 103.5 q0 70 -50.5 109t-134.5 39q-80 0 -131 -38t-51 -105z" />
<glyph unicode="&#x26;" horiz-adv-x="1937" d="M82 397q0 179 142.5 297.5t350.5 120.5l-364 359v260h1280v-334h-717l553 -541q152 141 242 303l235 -256q-90 -169 -223 -293l324 -313h-496l-113 111q-269 -136 -548 -136q-57 0 -114 4.5t-124.5 17t-126.5 32t-115.5 53t-96.5 76t-64.5 104t-24.5 135.5zM358 537 q0 -121 105 -179.5t299 -58.5q135 0 274 63l-356 351q-134 11 -228 -39t-94 -137z" />
<glyph unicode="'" horiz-adv-x="432" d="M61 1434h310l-68 -553h-207z" />
<glyph unicode="(" horiz-adv-x="962" d="M102 717q0 298 89 522t261 349t408 126v-299q-218 -2 -351.5 -193.5t-133.5 -504.5t133.5 -505t351.5 -194v-299q-236 1 -408 126.5t-261 349.5t-89 522z" />
<glyph unicode=")" horiz-adv-x="962" d="M102 18q233 2 359.5 179t126.5 520q0 344 -126 520t-360 178v299q236 -1 408 -126t261 -349t89 -522t-89 -522t-261 -349.5t-408 -126.5v299z" />
<glyph unicode="*" horiz-adv-x="1259" d="M61 805v221l439 -61l-357 239l170 156l262 -326l-67 400h242l-66 -400l262 326l170 -156l-358 -239l440 61v-221l-440 61l358 -239l-170 -154l-262 324l66 -400h-242l67 400l-262 -324l-170 154l357 239z" />
<glyph unicode="+" horiz-adv-x="1187" d="M61 530v293h385v387h293v-387h387v-293h-385v-385h-292v385h-388z" />
<glyph unicode="," horiz-adv-x="555" d="M61 -346l129 553h304l-232 -553h-201z" />
<glyph unicode="-" horiz-adv-x="942" d="M61 530v293h820v-293h-820z" />
<glyph unicode="." horiz-adv-x="552" d="M78 164q0 87 54 137.5t144 50.5q89 0 145 -51t56 -137q0 -88 -54.5 -139.5t-146.5 -51.5q-90 0 -144 52t-54 139z" />
<glyph unicode="/" horiz-adv-x="2146" d="M61 0l1704 1434h320l-1704 -1434h-320z" />
<glyph unicode="0" horiz-adv-x="1984" d="M86 717q0 340 244 544.5t661 204.5q418 0 662.5 -204.5t244.5 -544.5q0 -224 -109 -393.5t-315 -263t-483 -93.5q-417 0 -661 205t-244 545zM438 717q0 -215 147 -333t406 -118q260 0 407.5 118t147.5 333q0 216 -147 333t-408 117q-259 0 -406 -117t-147 -333z" />
<glyph unicode="1" horiz-adv-x="1277" d="M51 688v350l828 396h229v-1434h-352v1133z" />
<glyph unicode="2" horiz-adv-x="1732" d="M78 0v231q91 44 229 108t242.5 112.5t228 108t211.5 110.5t164.5 104t116 103.5t39.5 95.5q0 103 -107 145.5t-356 42.5q-153 0 -381.5 -27.5t-292.5 -52.5v312q88 29 313 50t416 21q157 0 273 -11.5t211.5 -40t154.5 -76.5t91 -120.5t32 -171.5q0 -80 -39 -156.5 t-104 -139.5t-158 -122t-191.5 -105.5t-213.5 -90t-215.5 -74t-206.5 -57.5h1067v-299h-1524z" />
<glyph unicode="3" horiz-adv-x="1650" d="M70 57v299q98 -42 288 -66t359 -24q530 0 530 137q0 40 -29.5 68t-99.5 51.5t-198.5 41t-314 32t-458.5 27.5v186q277 12 470 27.5t308 32.5t178 40t83 46t20 55q0 56 -70 93t-176 51.5t-245 14.5q-162 0 -353 -25.5t-292 -66.5v299q120 44 310.5 68t354.5 24 q102 0 182.5 -3.5t167 -14t151 -28.5t124 -48t97.5 -70.5t60.5 -98.5t22.5 -130q0 -57 -22 -104.5t-55 -81t-85 -60t-98 -43t-109 -28t-102.5 -16.5t-94.5 -8t-69 -3h-41v-18q9 0 49 -0.5t72.5 -1.5t86.5 -5t97.5 -10t98 -18.5t96.5 -29t84.5 -42.5t70 -58t45 -76.5 t17.5 -96.5q0 -99 -40.5 -171.5t-110 -118t-177.5 -72.5t-227 -37t-274 -9q-449 4 -682 90z" />
<glyph unicode="4" horiz-adv-x="1773" d="M29 240v227l966 967h541v-897h199v-297h-199v-240h-352v240h-1155zM436 537h748v782z" />
<glyph unicode="5" horiz-adv-x="1658" d="M70 51v320q82 -38 288.5 -70.5t354.5 -32.5q254 0 379 46.5t125 156.5q0 103 -98.5 149t-315.5 46q-122 0 -263.5 -20t-203.5 -34.5t-186 -44.5v867h1341v-299h-1071v-283q235 78 504 78q103 0 187.5 -10t172.5 -41t148.5 -81t98.5 -135.5t38 -199.5q0 -156 -107.5 -269 t-298.5 -170t-444 -57q-154 0 -355 23.5t-294 60.5z" />
<glyph unicode="6" horiz-adv-x="1761" d="M86 741q0 175 65.5 313t184.5 227.5t284 136t365 46.5q341 0 580 -118v-326q-259 145 -588 145q-246 0 -392.5 -113t-146.5 -311v-26q102 97 251.5 162t332.5 65q166 0 292.5 -36.5t204.5 -102.5t117 -153.5t39 -194.5q0 -220 -198 -350t-551 -130q-190 0 -343 47 t-264.5 140t-172 240t-60.5 339zM471 532q92 -258 436 -258q197 0 305.5 49.5t108.5 153.5q0 100 -89 153.5t-261 53.5q-129 0 -272 -42.5t-228 -109.5z" />
<glyph unicode="7" horiz-adv-x="1687" d="M25 1135v299h1636v-152l-977 -1282h-479l930 1135h-1110z" />
<glyph unicode="8" horiz-adv-x="1759" d="M70 375q0 69 31.5 125t78.5 90.5t113.5 59.5t125.5 36.5t126 18.5q-61 10 -115 25.5t-114.5 45t-104 67.5t-72 96t-28.5 128q0 189 206 291t562 102q160 0 298 -24.5t244 -72t167 -123.5t61 -173q0 -70 -29 -128t-72.5 -96t-104.5 -67.5t-115.5 -45t-115.5 -25.5 q67 -7 126.5 -18.5t126.5 -36.5t114.5 -59.5t79 -90.5t31.5 -125q0 -129 -103.5 -225t-284 -144.5t-413.5 -46.5q-247 -2 -429 43t-286 140.5t-104 232.5zM424 401q0 -75 116.5 -115t338.5 -40q221 0 338.5 39.5t117.5 115.5q0 53 -34.5 85.5t-137.5 52.5t-284 20 q-137 0 -228 -10.5t-140 -32t-68 -49t-19 -66.5zM465 1014q0 -38 14 -64t55 -50t127 -36t218 -12q103 0 178.5 8.5t120.5 22.5t71.5 35.5t35.5 44t9 51.5q0 41 -33.5 73t-92 51t-132 28.5t-157.5 9.5t-157 -9.5t-131 -28.5t-92 -51t-34 -73z" />
<glyph unicode="9" horiz-adv-x="1761" d="M86 983q0 220 198.5 349.5t551.5 129.5q190 0 343 -47t264.5 -140t171.5 -240t60 -339q0 -175 -65.5 -313t-184.5 -227.5t-284 -136t-365 -46.5q-338 0 -579 119v326q124 -70 264.5 -108t322.5 -38q246 0 392.5 113t146.5 311v27q-102 -97 -251.5 -162t-332.5 -65 q-166 0 -292.5 36.5t-204.5 102.5t-117 153.5t-39 194.5zM440 961q0 -100 89.5 -153.5t261.5 -53.5q130 0 272 42.5t227 108.5q-92 258 -436 258q-414 0 -414 -202z" />
<glyph unicode=":" horiz-adv-x="624" d="M78 164q0 87 54 137.5t144 50.5q89 0 145 -51t56 -137q0 -88 -54.5 -139.5t-146.5 -51.5q-90 0 -144 52t-54 139zM78 791q0 87 54 137.5t144 50.5q89 0 145 -51t56 -137q0 -88 -54.5 -139.5t-146.5 -51.5q-90 0 -144 52t-54 139z" />
<glyph unicode=";" horiz-adv-x="600" d="M61 -346l129 553h304l-232 -553h-201zM123 791q0 87 54.5 137.5t144.5 50.5q89 0 144.5 -50.5t55.5 -137.5q0 -88 -54 -139.5t-146 -51.5q-90 0 -144.5 52t-54.5 139z" />
<glyph unicode="&#x3c;" horiz-adv-x="1005" d="M61 512l422 512h430l-438 -512l438 -512h-430z" />
<glyph unicode="=" horiz-adv-x="1187" d="M61 264v293h1065v-293h-1065zM61 782v293h1065v-293h-1065z" />
<glyph unicode="&#x3e;" horiz-adv-x="974" d="M61 0l439 512l-439 512h431l421 -512l-421 -512h-431z" />
<glyph unicode="?" horiz-adv-x="1490" d="M20 1118v309q270 37 574 37q156 0 271 -12t209.5 -41.5t153 -78t89.5 -122t31 -174.5q0 -84 -22.5 -149.5t-61 -106t-88 -69.5t-104 -45.5t-109 -29t-104 -24.5t-88 -28t-61 -43t-22.5 -66h-270q-2 16 -2 47q0 77 25 135t65.5 90t92 55t106 33t106 22.5t92 24.5t65.5 37 t25 62q0 105 -102.5 142.5t-368.5 37.5q-214 0 -502 -43zM354 164q0 87 54.5 137.5t144.5 50.5q89 0 145 -51t56 -137q0 -88 -54.5 -139.5t-146.5 -51.5q-90 0 -144.5 52t-54.5 139z" />
<glyph unicode="@" horiz-adv-x="2197" d="M102 659q0 185 70 338.5t197.5 261t314.5 167t414 59.5q226 0 415 -60.5t315.5 -164t196.5 -243t70 -296.5q0 -158 -82.5 -283t-253.5 -188h-428l37 301h-16q-38 -173 -139.5 -250.5t-292.5 -77.5q-314 0 -314 221q0 53 27 96.5t78.5 74t114.5 53.5t148.5 38.5t165 25 t179.5 16.5q0 129 -199 129q-94 0 -205.5 -26t-203.5 -65v242q108 41 238.5 66.5t238.5 25.5q422 0 422 -395v-426q129 83 178 179t49 243q0 241 -199.5 388.5t-539.5 147.5q-344 0 -540 -157.5t-196 -440.5t195.5 -439.5t540.5 -156.5q201 0 350 52v-240q-161 -41 -350 -41 q-227 0 -414 59.5t-314.5 167t-197.5 260.5t-70 338zM905 498q0 -36 39.5 -56t102.5 -20q69 0 129 20.5t101.5 67t41.5 111.5q-47 -3 -74.5 -5.5l-71.5 -6.5t-71.5 -8.5t-62 -11.5t-55.5 -15.5t-41 -19.5t-29 -25t-9 -31z" />
<glyph unicode="A" d="M59 0l867 1434h397l866 -1434h-413l-156 272h-993l-156 -272h-412zM797 571h655l-328 574z" />
<glyph unicode="B" horiz-adv-x="1896" d="M172 0v1434h1079q217 0 339 -105t122 -274q0 -154 -104.5 -234.5t-292.5 -91.5q206 -5 325 -94.5t119 -253.5q0 -172 -127 -276.5t-336 -104.5h-1124zM522 1135l2 -275h656q88 0 134 31.5t46 103.5q0 140 -180 140h-658zM524 596l2 -295h699q180 0 180 145 q0 75 -47.5 112.5t-132.5 37.5h-701z" />
<glyph unicode="C" horiz-adv-x="1900" d="M86 717q0 223 107.5 393.5t303.5 263t453 92.5t453.5 -81.5t304 -231t107.5 -344.5h-357q-12 173 -149 265.5t-359 92.5q-235 0 -373.5 -118t-138.5 -332q0 -213 139 -332t373 -119q223 0 360.5 94t147.5 265h357q0 -195 -107.5 -345t-304.5 -231.5t-453 -81.5 q-257 0 -453 93t-303.5 263.5t-107.5 393.5z" />
<glyph unicode="D" horiz-adv-x="1775" d="M172 0v1434h682q394 0 615 -185t221 -532q0 -350 -221 -533.5t-615 -183.5h-682zM524 299h330q238 0 365 107t127 311q0 207 -127.5 312.5t-364.5 105.5h-330v-836z" />
<glyph unicode="E" horiz-adv-x="1720" d="M172 0v1434h1397v-299h-1045v-267h1026v-280h-1026v-289h1045v-299h-1397z" />
<glyph unicode="F" horiz-adv-x="1574" d="M172 0v1434h1313v-299h-961v-267h942v-280h-942v-588h-352z" />
<glyph unicode="G" horiz-adv-x="1966" d="M106 717q0 167 62.5 307t175.5 237t274 151t353 54q244 0 437 -69t303 -196t114 -292h-363q-6 129 -135 193.5t-356 64.5q-235 0 -373.5 -118t-138.5 -332q0 -213 139 -332t373 -119q195 0 330 68t169 201h-714v251h1091v-786h-229l-16 287q-85 -160 -251 -240t-380 -80 q-257 0 -453.5 93t-304 263.5t-107.5 393.5z" />
<glyph unicode="H" horiz-adv-x="1951" d="M172 0v1434h352v-539h903v539h353v-1434h-353v596h-903v-596h-352z" />
<glyph unicode="I" horiz-adv-x="696" d="M172 0v1434h352v-1434h-352z" />
<glyph unicode="J" horiz-adv-x="1685" d="M111 694h354q0 -230 86.5 -329t261.5 -99t261.5 99t86.5 329v441h-860v299h1212v-740q0 -727 -700 -727q-702 0 -702 727z" />
<glyph unicode="K" horiz-adv-x="1976" d="M172 0v1434h352v-727l795 727h514l-578 -502l635 -932h-475l-444 684l-447 -383v-301h-352z" />
<glyph unicode="L" horiz-adv-x="1546" d="M172 0v1434h352v-1135h953v-299h-1305z" />
<glyph unicode="M" horiz-adv-x="2150" d="M172 0v1434h313l590 -930l588 930h315v-1434h-352v827l-516 -827h-70l-516 825v-825h-352z" />
<glyph unicode="N" horiz-adv-x="1994" d="M172 0v1434h295l1006 -912v912h352v-1434h-297l-1004 911v-911h-352z" />
<glyph unicode="O" horiz-adv-x="1984" d="M86 717q0 340 244 544.5t661 204.5q418 0 662.5 -204.5t244.5 -544.5q0 -224 -109 -393.5t-315 -263t-483 -93.5q-417 0 -661 205t-244 545zM438 717q0 -215 147 -333t406 -118q260 0 407.5 118t147.5 333q0 216 -147 333t-408 117q-259 0 -406 -117t-147 -333z" />
<glyph unicode="P" horiz-adv-x="1789" d="M172 0v1434h1038q109 0 200.5 -35t152.5 -94.5t95 -139.5t34 -170q0 -141 -63.5 -241t-170.5 -147.5t-248 -47.5h-686v-559h-352zM522 846h637q93 0 136.5 35t43.5 114t-44 116.5t-136 37.5h-637v-303z" />
<glyph unicode="Q" horiz-adv-x="2025" d="M86 717q0 340 244 544.5t661 204.5q418 0 662.5 -204.5t244.5 -544.5q0 -202 -90 -361l201 -108l-176 -281l-238 162q-237 -162 -604 -162q-417 0 -661 205t-244 545zM438 717q0 -215 147 -333t406 -118q182 0 314 60l-312 211l119 196l393 -213q41 87 41 197 q0 216 -147 333t-408 117q-259 0 -406 -117t-147 -333z" />
<glyph unicode="R" horiz-adv-x="1927" d="M172 0v1434h1141q217 0 339 -105t122 -274t-125.5 -265t-335.5 -96h-148q74 -5 136 -22t114 -43t101.5 -72t90 -94.5t88 -126t87.5 -151.5t96 -185h-446q-169 304 -221 382q-86 130 -164 173q-69 39 -179 39h-346l2 -594h-352zM520 1149l2 -281h719q180 0 180 136 q0 76 -43.5 110.5t-136.5 34.5h-721z" />
<glyph unicode="S" horiz-adv-x="1800" d="M86 467h373q-2 -80 103.5 -139t311.5 -62h23q463 0 463 162q0 40 -35 67t-94.5 40t-139 22.5t-169 13.5t-184 15t-184 24.5t-169 44t-139 72.5t-94.5 110.5t-35 157.5q0 144 94.5 251.5t265.5 163.5t397 56q353 0 571.5 -136.5t221.5 -362.5h-375q2 82 -94.5 140.5 t-296.5 59.5h-35q-393 0 -393 -155q0 -43 42.5 -70.5t114.5 -41t165 -22t196 -18t205.5 -23t195.5 -42.5t165 -71.5t114.5 -115t42.5 -168.5q0 -145 -101.5 -253t-284 -164t-423.5 -56q-247 0 -435 62q-187 61 -287 175q-97 110 -97 254v9z" />
<glyph unicode="T" horiz-adv-x="1804" d="M59 1135v299h1686v-299h-668v-1135h-352v1135h-666z" />
<glyph unicode="U" horiz-adv-x="1878" d="M172 754v680h352v-742q0 -208 105 -312t309 -104q205 0 310.5 104t105.5 312v742h352v-680q0 -129 -18 -235.5t-52 -187.5t-85 -143t-113.5 -103.5t-142.5 -68t-167 -38t-190 -11.5q-146 0 -260.5 23t-211.5 78.5t-160 144.5t-98.5 225t-35.5 316z" />
<glyph unicode="V" horiz-adv-x="2181" d="M59 1434h420l613 -1213l610 1213h420l-756 -1434h-551z" />
<glyph unicode="W" horiz-adv-x="2609" d="M74 1434h393l340 -955l309 955h377l309 -955l340 955h391l-530 -1434h-410l-288 862l-289 -862h-412z" />
<glyph unicode="X" horiz-adv-x="1923" d="M74 0l645 723l-639 711h477l408 -455l409 455h475l-647 -723l633 -711h-469l-412 457l-411 -457h-469z" />
<glyph unicode="Y" horiz-adv-x="2054" d="M51 1434h434l541 -676l543 676h434l-801 -969v-465h-352v463z" />
<glyph unicode="Z" horiz-adv-x="1847" d="M80 0v225l1081 910h-1065v299h1651v-220l-1077 -915h1097v-299h-1687z" />
<glyph unicode="[" horiz-adv-x="1050" d="M61 -389v1823h928v-230h-575v-1364h575v-229h-928z" />
<glyph unicode="\" horiz-adv-x="2146" d="M61 1434h320l1704 -1434h-320z" />
<glyph unicode="]" horiz-adv-x="1050" d="M61 -160h576v1364h-576v230h928v-1823h-928v229z" />
<glyph unicode="^" horiz-adv-x="1146" d="M61 649v242l512 561l512 -561v-242l-512 496z" />
<glyph unicode="_" horiz-adv-x="2170" d="M61 0v293h2048v-293h-2048z" />
<glyph unicode="`" horiz-adv-x="792" d="M102 1450v209l588 -381v-164z" />
<glyph unicode="a" horiz-adv-x="1406" d="M86 238q0 55 25.5 101.5t68.5 81t109 62.5t137.5 47t163 34t176.5 24t188 16q0 82 -60 120t-181 38q-115 0 -252.5 -31t-245.5 -78v293q134 49 291.5 80t288.5 31q512 0 512 -479v-578h-338l45 367h-21q-46 -212 -169 -306t-357 -94q-53 0 -99 5t-100 22t-92 45.5 t-64 79.5t-26 119zM451 301q0 -43 47.5 -67.5t124.5 -24.5q133 0 231.5 63t97.5 179q-43 -3 -71.5 -5t-70.5 -5.5t-70.5 -7.5t-65 -9t-61.5 -11.5t-53 -14.5t-46 -18t-33.5 -21.5t-22.5 -26t-7 -31.5z" />
<glyph unicode="b" horiz-adv-x="1597" d="M119 0v1434h352v-742h8q35 170 175.5 267.5t332.5 97.5q228 0 377 -149t149 -388q0 -246 -147.5 -399.5t-374.5 -153.5q-201 0 -350 98.5t-182 268.5h-25l45 -334h-360zM518 516q0 -85 48 -148t121.5 -92.5t160.5 -29.5q139 0 232.5 71t93.5 199q0 126 -93 194t-233 68 q-64 0 -122.5 -16.5t-105.5 -48t-74.5 -82.5t-27.5 -115z" />
<glyph unicode="c" horiz-adv-x="1263" d="M86 512q0 250 162.5 397.5t449.5 147.5q133 0 242 -26.5t238 -84.5v-295q-213 127 -426 127q-160 0 -243 -67t-83 -199q0 -131 85.5 -198.5t246.5 -67.5q224 0 420 123v-291q-136 -61 -237.5 -86t-244.5 -25q-278 0 -444 149t-166 396z" />
<glyph unicode="d" horiz-adv-x="1597" d="M84 520q0 239 149 388t377 149q192 0 332.5 -97.5t175.5 -267.5h8v742h353v-1434h-361l45 334h-24q-33 -170 -182.5 -268.5t-350.5 -98.5q-227 0 -374.5 153.5t-147.5 399.5zM424 516q0 -128 93.5 -199t232.5 -71q87 0 160 29.5t121 92.5t48 148q0 84 -48 145t-121 89 t-160 28q-140 0 -233 -68t-93 -194z" />
<glyph unicode="e" horiz-adv-x="1404" d="M86 512q0 246 169 395.5t447 149.5q275 0 443.5 -127.5t173.5 -337.5v-168h-889q26 -97 117.5 -142.5t257.5 -45.5q72 0 129.5 5.5t114 21.5t78 22.5t82 33.5t65.5 29v-280q-146 -56 -263 -78.5t-309 -22.5q-278 0 -447 149.5t-169 395.5zM422 567l559 13 q-11 198 -279 198q-252 0 -280 -211z" />
<glyph unicode="f" horiz-adv-x="868" d="M78 768v256h123v41q0 109 14 179t50 118.5t97.5 69t157.5 20.5q107 0 275 -33v-205q-14 0 -37.5 1.5t-32.5 1.5q-49 0 -79 -6t-49.5 -17t-28.5 -36t-12 -54t-3 -80h242v-236h-242v-788h-352v768h-123z" />
<glyph unicode="g" horiz-adv-x="1619" d="M106 520q0 239 148.5 388t378.5 149q191 0 332.5 -98t175.5 -267h33l-31 332h348v-901q0 -136 -49.5 -239t-141 -167t-214.5 -95.5t-277 -31.5q-288 0 -551 74v299q65 -40 202 -67t290 -27q112 0 185.5 19t120.5 63t68.5 110t26.5 166l2 76q-41 -152 -184 -231.5 t-340 -79.5q-231 0 -377 142t-146 386zM446 516q0 -128 93 -199t231 -71q87 0 160.5 29.5t121.5 92.5t48 148q0 125 -96.5 193.5t-233.5 68.5q-139 0 -231.5 -68t-92.5 -194z" />
<glyph unicode="h" horiz-adv-x="1488" d="M119 0v1434h381l-41 -832h16q38 232 158 343.5t352 111.5q113 -2 188.5 -30.5t129 -98.5t78 -188t24.5 -296v-444h-352v410q0 213 -60 298t-200 85q-144 0 -233 -133.5t-89 -346.5v-313h-352z" />
<glyph unicode="i" horiz-adv-x="606" d="M92 1341q0 189 209 189q213 0 213 -189q0 -97 -53.5 -141.5t-159.5 -44.5q-103 0 -156 44.5t-53 141.5zM129 0v1024h352v-1024h-352z" />
<glyph unicode="j" horiz-adv-x="638" d="M-66 -207q99 0 152 47.5t53 122.5v1061h353v-1044q0 -182 -151 -286t-407 -104v203zM104 1341q0 189 209 189q213 0 213 -189q0 -97 -53.5 -141.5t-159.5 -44.5q-103 0 -156 44.5t-53 141.5z" />
<glyph unicode="k" horiz-adv-x="1486" d="M119 0v1434h352v-807l434 397h492l-402 -342l428 -682h-436l-260 451l-256 -213v-238h-352z" />
<glyph unicode="l" horiz-adv-x="587" d="M119 0v1434h352v-1434h-352z" />
<glyph unicode="m" horiz-adv-x="2437" d="M119 0v1024h381l-41 -422h16q38 232 158 343.5t352 111.5q131 -2 212.5 -42t131.5 -140t64 -273h16q38 232 158 343.5t352 111.5q113 -2 188.5 -30.5t129 -98.5t78 -188t24.5 -296v-444h-352v410q0 214 -60 298.5t-201 84.5q-144 0 -232.5 -133.5t-88.5 -346.5v-313h-352 v410q0 214 -59.5 298.5t-200.5 84.5q-144 0 -233 -133.5t-89 -346.5v-313h-352z" />
<glyph unicode="n" horiz-adv-x="1503" d="M119 0v1024h381l-41 -422h16q38 232 158 343.5t352 111.5q113 -2 188.5 -30.5t129 -98.5t78 -188t24.5 -296v-444h-352v410q0 213 -60 298t-200 85q-144 0 -233 -133.5t-89 -346.5v-313h-352z" />
<glyph unicode="o" horiz-adv-x="1470" d="M86 512q0 246 178 395.5t471 149.5t471 -149.5t178 -395.5t-178 -395.5t-471 -149.5t-471 149.5t-178 395.5zM418 512q0 -120 87 -193t230 -73t230.5 73t87.5 193t-87.5 193t-230.5 73t-230 -73t-87 -193z" />
<glyph unicode="p" horiz-adv-x="1597" d="M119 -410v1434h360l-45 -334h25q33 170 182 268.5t350 98.5q227 0 374.5 -153.5t147.5 -399.5q0 -239 -149 -388t-377 -149q-192 0 -332.5 97.5t-175.5 267.5h-8v-742h-352zM518 508q0 -64 27.5 -115t74.5 -82.5t105.5 -48t122.5 -16.5q140 0 233 68t93 194 q0 128 -93.5 199t-232.5 71q-87 0 -160.5 -29.5t-121.5 -92.5t-48 -148z" />
<glyph unicode="q" horiz-adv-x="1597" d="M84 504q0 246 147.5 399.5t374.5 153.5q201 0 350.5 -98.5t182.5 -268.5h24l-45 334h361v-1434h-353v742h-8q-35 -170 -175.5 -267.5t-332.5 -97.5q-228 0 -377 149t-149 388zM424 508q0 -126 93 -194t233 -68q87 0 160 28t121 89t48 145q0 85 -48 148t-121 92.5 t-160 29.5q-139 0 -232.5 -71t-93.5 -199z" />
<glyph unicode="r" horiz-adv-x="1099" d="M119 0v1024h381l-41 -422h20q39 250 168 352.5t395 102.5v-299q-103 0 -181 -7.5t-144 -26.5t-110.5 -49.5t-76 -76.5t-45.5 -108.5t-14 -145.5v-344h-352z" />
<glyph unicode="s" horiz-adv-x="1368" d="M86 709q0 173 161 260.5t441 87.5q94 0 237 -16t275 -42v-284q-248 53 -467 53q-307 0 -307 -76q0 -26 37 -40.5t97 -18t137 -9t157 -11t157 -25t137 -50t97 -89t37 -138.5q0 -90 -43 -156.5t-123.5 -107.5t-189 -60.5t-246.5 -19.5q-120 0 -271.5 22t-277.5 58v291 q126 -48 241.5 -68t254.5 -20q169 0 242 17.5t73 62.5q0 35 -47 53t-122.5 23.5t-167 9t-183 17t-167 41t-122.5 87t-47 148.5z" />
<glyph unicode="t" horiz-adv-x="872" d="M70 768v256h174v246l309 41v-287h250v-256h-250v-338q0 -137 22.5 -175t131.5 -38q22 0 96 4v-201q-132 -40 -295 -40q-58 0 -101 6.5t-76 19t-55.5 35.5t-37.5 51.5t-23 71.5t-11 90.5t-3 114.5v399h-131z" />
<glyph unicode="u" horiz-adv-x="1503" d="M98 580v444h353v-410q0 -213 60 -298t200 -85q144 0 232.5 133.5t88.5 346.5v313h352v-1024h-380l40 422h-16q-38 -232 -158 -343.5t-352 -111.5q-113 2 -188.5 30.5t-129 98.5t-78 188t-24.5 296z" />
<glyph unicode="v" horiz-adv-x="1648" d="M59 1024h379l387 -733l385 733h379l-540 -1024h-449z" />
<glyph unicode="w" horiz-adv-x="2250" d="M51 1024h359l282 -664l264 664h316l284 -672l283 672h361l-439 -1024h-418l-225 551l-213 -551h-416z" />
<glyph unicode="x" horiz-adv-x="1667" d="M51 0l543 514l-541 510h449l332 -313l333 313h449l-559 -526l526 -498h-446l-320 301l-319 -301h-447z" />
<glyph unicode="y" horiz-adv-x="1615" d="M51 1024h400l364 -664l363 664h387l-770 -1434h-387l227 422z" />
<glyph unicode="z" horiz-adv-x="1472" d="M61 0v176l738 584h-721v264h1333v-172l-733 -586h713v-266h-1330z" />
<glyph unicode="{" horiz-adv-x="1429" d="M61 645v139q141 2 239 29t153.5 78t79.5 117t24 155q0 66 8 115.5t28.5 96t56 79.5t90.5 60t133 43.5t181.5 25t237.5 8.5v-127q-124 0 -205.5 -13.5t-139.5 -47.5t-83.5 -92.5t-25.5 -147.5q0 -54 -1.5 -86.5t-9.5 -79.5t-22.5 -77t-43.5 -66t-70 -59t-103 -44.5 t-142 -33.5q132 -7 225 -43t145 -99t74.5 -141.5t22.5 -181.5q0 -164 107.5 -227.5t347.5 -63.5v-125q-153 0 -267.5 11t-195.5 34.5t-133.5 56t-83 81.5t-42 103.5t-11.5 129.5q0 393 -574 393z" />
<glyph unicode="|" horiz-adv-x="598" d="M123 -348v1823h352v-1823h-352z" />
<glyph unicode="}" horiz-adv-x="1443" d="M76 -39q240 0 347 63t107 228q0 103 22.5 181.5t74.5 141.5t145 99t225 43q-80 12 -142 33.5t-103 44.5t-69.5 59t-43.5 65.5t-22.5 77.5t-9 80t-1.5 86q0 89 -25.5 147.5t-83.5 92.5t-139.5 47.5t-205.5 13.5v127q134 0 237.5 -8.5t181.5 -25t133 -43.5t90.5 -60 t56 -79.5t28.5 -96t8 -115.5q0 -89 24 -155t79.5 -117t153 -78t238.5 -29v-139q-573 0 -573 -393q0 -75 -11.5 -129.5t-42 -103.5t-83 -81.5t-133.5 -56t-195.5 -34.5t-267.5 -11v125z" />
<glyph unicode="~" horiz-adv-x="903" d="M61 637q1 119 71.5 192.5t180.5 73.5q36 0 69 -15t57 -36.5t47 -43.5t50 -37t54 -15q59 0 93.5 36t35.5 109h123q-1 -120 -71.5 -193t-180.5 -73q-41 0 -76.5 15t-61 36.5t-47.5 43.5t-45.5 37t-46.5 15q-57 0 -91.5 -37t-35.5 -108h-125z" />
<glyph unicode="&#xa1;" horiz-adv-x="593" d="M98 874q0 87 54.5 139t144.5 52q92 0 146.5 -51.5t54.5 -139.5q0 -86 -56 -137t-145 -51q-90 0 -144.5 50.5t-54.5 137.5zM127 -395l20 831h328l21 -831h-369z" />
<glyph unicode="&#xa2;" horiz-adv-x="1206" d="M66 696q0 198 104.5 335t296.5 186v217h383v-205q132 -20 307 -99v-294q-213 127 -426 127q-159 0 -242 -67t-83 -200q0 -131 85 -198.5t246 -67.5q224 0 420 123v-291q-96 -42 -163.5 -64.5t-143.5 -33.5v-225h-383v239q-188 50 -294.5 187t-106.5 331z" />
<glyph unicode="&#xa3;" horiz-adv-x="1847" d="M102 467v211h230l-25 82h-205v211h162q-2 20 -2 65q0 97 30 169.5t88.5 122t151.5 80t211 43.5t275 13q191 0 414.5 -21t312.5 -50v-312q-64 25 -292.5 52.5t-381.5 27.5q-238 0 -341.5 -41.5t-113.5 -148.5h961v-211h-950l4 -82h946v-211h-981q-39 -117 -145 -180h1280 v-287h-1557v295q146 68 172 172h-244z" />
<glyph unicode="&#xa4;" horiz-adv-x="1474" d="M84 281l168 170q-59 95 -59 225q0 137 69 237l-178 179l248 249l233 -233q77 18 170 18q97 0 176 -18l232 233l250 -249l-176 -177q61 -98 61 -239q0 -133 -55 -227l170 -168l-250 -248l-215 213q-82 -21 -193 -21q-96 0 -186 23l-217 -215zM475 676q0 -100 69 -158.5 t191 -58.5t191 58.5t69 158.5t-69 158.5t-191 58.5t-191 -58.5t-69 -158.5z" />
<glyph unicode="&#xa5;" horiz-adv-x="1972" d="M51 1434h434l541 -676l543 676h434l-569 -689h319v-210h-493l-58 -70v-12h551v-211h-551v-242h-352v242h-551v211h551v10l-59 72h-492v210h317z" />
<glyph unicode="&#xa6;" horiz-adv-x="598" d="M123 -348v856h352v-856h-352zM123 641v834h352v-834h-352z" />
<glyph unicode="&#xa7;" horiz-adv-x="1318" d="M61 739q0 103 84 156q-84 77 -84 182q0 164 162.5 250t440.5 86q95 0 238.5 -15.5t273.5 -41.5v-285q-109 23 -252.5 38t-259.5 15q-133 0 -191.5 -14.5t-58.5 -50.5q0 -23 46.5 -34.5t121 -16.5t164 -11t179.5 -25.5t164.5 -54t121 -102.5t46.5 -164q0 -92 -73 -155 q73 -84 73 -185q0 -103 -76.5 -174t-209.5 -104t-316 -33q-120 0 -271.5 22t-277.5 58v285q232 -89 549 -89q250 0 250 56q0 31 -36.5 50t-95.5 26t-135 15t-155 15t-155 27.5t-135 51t-95.5 87.5t-36.5 135zM418 727q-4 -46 52.5 -72t180.5 -37q54 -4 76 -4q165 0 174 78 q4 49 -56.5 75.5t-185.5 37.5q-66 4 -84 4q-84 0 -119 -20.5t-38 -61.5z" />
<glyph unicode="&#xa8;" horiz-adv-x="1204" d="M102 1276q0 78 56.5 126t146.5 48q97 0 150 -47t53 -127t-53 -127t-150 -47q-90 0 -146.5 48t-56.5 126zM696 1276q0 78 56.5 126t146.5 48q97 0 150 -47t53 -127t-53 -127t-150 -47q-90 0 -146.5 48t-56.5 126z" />
<glyph unicode="&#xa9;" horiz-adv-x="1976" d="M102 717q0 341 238 545t647 204q417 0 652 -201.5t235 -547.5q0 -169 -60 -307.5t-172.5 -236.5t-279.5 -152t-375 -54q-414 0 -649.5 204t-235.5 546zM156 713q0 -150 56 -277t160 -218.5t262 -143t353 -51.5q205 0 364.5 52t260.5 146t153 220.5t52 279.5 q0 152 -52.5 277.5t-154.5 218t-261 143.5t-362 51q-197 0 -355.5 -52.5t-262 -145.5t-158.5 -220.5t-55 -279.5zM381 719q0 246 169 395.5t447 149.5q277 0 446 -134t169 -352h-357q-12 94 -83 151.5t-175 57.5q-119 0 -191.5 -73.5t-72.5 -194.5t72.5 -194.5t191.5 -73.5 q109 0 181.5 62t81.5 163h354q0 -226 -169.5 -364t-447.5 -138t-447 149.5t-169 395.5z" />
<glyph unicode="&#xab;" horiz-adv-x="1781" d="M78 512l422 512h430l-438 -512l438 -512h-430zM854 512l422 512h430l-438 -512l438 -512h-430z" />
<glyph unicode="&#xac;" horiz-adv-x="1372" d="M61 561v293h1250v-698h-293l-2 405h-955z" />
<glyph unicode="&#xad;" horiz-adv-x="942" d="M61 530v293h820v-293h-820z" />
<glyph unicode="&#xae;" horiz-adv-x="1976" d="M102 717q0 341 238 545t647 204q417 0 652 -201.5t235 -547.5q0 -169 -60 -307.5t-172.5 -236.5t-279.5 -152t-375 -54q-414 0 -649.5 204t-235.5 546zM156 713q0 -150 56 -277t160 -218.5t262 -143t353 -51.5q205 0 364.5 52t260.5 146t153 220.5t52 279.5 q0 152 -52.5 277.5t-154.5 218t-261 143.5t-362 51q-197 0 -355.5 -52.5t-262 -145.5t-158.5 -220.5t-55 -279.5zM522 272v891h709q135 0 211 -65.5t76 -169.5q0 -106 -78 -166t-209 -60h-92q54 -3 97 -15t81.5 -38t68.5 -56.5t64 -83t62.5 -104.5t68.5 -133h-276 q-117 210 -152 259q-56 79 -116 99q-34 11 -83 11h-215l2 -369h-219zM739 811h447q112 0 112 84q0 47 -26.5 68.5t-85.5 21.5h-447v-174z" />
<glyph unicode="&#xaf;" horiz-adv-x="1294" d="M102 1323v111h1090v-111h-1090z" />
<glyph unicode="&#xb0;" horiz-adv-x="1060" d="M102 1198q0 75 59.5 134t156.5 90.5t212 31.5q191 0 309.5 -70.5t118.5 -185.5t-118.5 -185.5t-309.5 -70.5q-115 0 -212 31.5t-156.5 90.5t-59.5 134zM348 1198q0 -67 50 -105t132 -38t133.5 37t51.5 102q0 70 -50.5 109.5t-134.5 39.5q-81 0 -131.5 -38.5t-50.5 -106.5 z" />
<glyph unicode="&#xb1;" horiz-adv-x="1228" d="M61 0v211h1065v-211h-1065zM195 684v236h282v280h236v-280h280v-236h-280v-283h-236v283h-282z" />
<glyph unicode="&#xb4;" horiz-adv-x="792" d="M102 1114v164l588 381v-209z" />
<glyph unicode="&#xb6;" horiz-adv-x="1923" d="M61 995q0 90 34 170t95 139.5t152.5 94.5t200.5 35h624v-1803h-360v928h-264q-141 0 -248 47.5t-170.5 147.5t-63.5 241zM1509 -369v1803h353v-1803h-353z" />
<glyph unicode="&#xb7;" horiz-adv-x="552" d="M78 668q0 87 54 137.5t144 50.5q89 0 145 -51t56 -137q0 -88 -54.5 -139.5t-146.5 -51.5q-90 0 -144 52t-54 139z" />
<glyph unicode="&#xb8;" horiz-adv-x="1077" d="M102 -135l119 207h242l-111 -215q293 -18 458 -74t165 -145q0 -96 -242.5 -160.5t-630.5 -65.5v113q523 3 523 113t-523 118v109z" />
<glyph unicode="&#xbb;" horiz-adv-x="1812" d="M78 0l438 512l-438 512h430l422 -512l-422 -512h-430zM854 0l438 512l-438 512h430l422 -512l-422 -512h-430z" />
<glyph unicode="&#xbc;" horiz-adv-x="3282" d="M102 799v239l566 271h157v-979h-241v774zM860 -45l1409 1524h264l-1409 -1524h-264zM1972 289v155l660 660h368v-612h138v-203h-138v-164h-239v164h-789zM2249 492h512v534z" />
<glyph unicode="&#xbd;" horiz-adv-x="3551" d="M102 799v239l566 271h157v-979h-241v774zM858 -45l1409 1524h264l-1409 -1524h-264zM2386 125v158q62 30 156 73.5t165.5 76.5t155.5 74t144.5 75.5t112.5 70.5t79 70.5t27 64.5q0 71 -73.5 100.5t-242.5 29.5q-105 0 -261.5 -18.5t-199.5 -35.5v211q61 20 215 34.5 t285 14.5q107 0 186 -7.5t144.5 -27t105.5 -52t62 -82t22 -117.5q0 -63 -35 -122.5t-97 -108.5t-136.5 -91t-166 -77.5t-171.5 -61t-166 -47.5h729v-205h-1040z" />
<glyph unicode="&#xbe;" horiz-adv-x="3297" d="M88 369v204q67 -29 196.5 -45t245.5 -16q363 0 363 94q0 34 -31 55.5t-117 39.5t-228.5 30.5t-375.5 24.5v127q189 8 321 18.5t210.5 21.5t121.5 27t56.5 32t13.5 38q0 56 -93.5 82t-242.5 26q-110 0 -241 -17.5t-199 -45.5v205q83 30 213.5 46.5t241.5 16.5 q99 0 173 -5.5t149 -22t122.5 -45t77 -78t29.5 -117.5q0 -39 -15 -72t-37.5 -55.5t-58.5 -41t-67 -29.5t-75 -19t-70.5 -11.5t-64.5 -5.5t-47 -2h-28v-12q6 0 44.5 -1t68 -2t78.5 -7t86 -14.5t79 -26t69 -41t45.5 -59.5t18.5 -80q0 -67 -27.5 -117t-75 -81t-121 -49.5 t-155 -25.5t-186.5 -6q-308 4 -467 62zM874 -45l1410 1524h264l-1409 -1524h-265zM1987 283v155l659 660h369v-613h137v-202h-137v-164h-240v164h-788zM2263 485h512v535z" />
<glyph unicode="&#xbf;" horiz-adv-x="1519" d="M111 2q0 84 22.5 149.5t60.5 106t87.5 69.5t104.5 45.5t109.5 29t104 24.5t87.5 28t60.5 43t22.5 66h270q2 -16 2 -47q0 -77 -25 -135t-65.5 -90t-92 -55t-106 -33t-106 -22.5t-92 -24.5t-65.5 -37t-25 -62q0 -105 102.5 -142.5t368.5 -37.5q214 0 502 43v-309 q-270 -37 -574 -37q-156 0 -271 12t-209.5 41.5t-152.5 78t-89 122t-31 174.5zM705 874q0 88 54 139.5t146 51.5q90 0 144.5 -52t54.5 -139t-54.5 -137.5t-144.5 -50.5q-89 0 -144.5 50.5t-55.5 137.5z" />
<glyph unicode="&#xc0;" d="M59 0l867 1434h397l866 -1434h-413l-156 272h-993l-156 -272h-412zM549 1860v208l588 -380v-164zM797 571h655l-328 574z" />
<glyph unicode="&#xc1;" d="M59 0l867 1434h397l866 -1434h-413l-156 272h-993l-156 -272h-412zM797 571h655l-328 574zM1075 1524v164l588 380v-208z" />
<glyph unicode="&#xc2;" d="M59 0l867 1434h397l866 -1434h-413l-156 272h-993l-156 -272h-412zM537 1546v164l587 381l588 -381v-164l-588 336zM797 571h655l-328 574z" />
<glyph unicode="&#xc3;" d="M59 0l867 1434h397l866 -1434h-413l-156 272h-993l-156 -272h-412zM770 1583q1 119 71.5 192.5t180.5 73.5q44 0 84 -23t65.5 -50.5t59.5 -50.5t67 -23q59 0 93.5 36t35.5 109h123q-1 -120 -71.5 -193t-180.5 -73q-41 0 -76.5 15t-60.5 37t-47 44t-45.5 37t-46.5 15 q-57 0 -91.5 -37t-35.5 -109h-125zM797 571h655l-328 574z" />
<glyph unicode="&#xc4;" d="M59 0l867 1434h397l866 -1434h-413l-156 272h-993l-156 -272h-412zM633 1686q0 78 56.5 126t146.5 48q96 0 149 -47t53 -127t-53 -127.5t-149 -47.5q-90 0 -146.5 48.5t-56.5 126.5zM797 571h655l-328 574zM1227 1686q0 78 56.5 126t146.5 48q96 0 149 -47t53 -127 t-53 -127.5t-149 -47.5q-90 0 -146.5 48.5t-56.5 126.5z" />
<glyph unicode="&#xc5;" d="M59 0l867 1434h397l866 -1434h-413l-156 272h-993l-156 -272h-412zM606 1722q0 62 71.5 110.5t189 74.5t257.5 26q231 0 374.5 -58t143.5 -153t-143.5 -153t-374.5 -58q-140 0 -257.5 26t-189 74.5t-71.5 110.5zM797 571h655l-328 574zM942 1722q0 -52 50 -79t132 -27 q81 0 134 27.5t53 76.5q0 54 -50.5 81.5t-136.5 27.5q-81 0 -131.5 -27.5t-50.5 -79.5z" />
<glyph unicode="&#xc6;" horiz-adv-x="2957" d="M59 0l1231 1434h1516v-291h-969v-279h950v-272h-950v-301h969v-291h-1321v272h-723l-219 -272h-484zM997 563h488v606z" />
<glyph unicode="&#xc7;" horiz-adv-x="1900" d="M86 717q0 223 107.5 393.5t303.5 263t453 92.5t453.5 -81.5t304 -231t107.5 -344.5h-357q-12 173 -149 265.5t-359 92.5q-235 0 -373.5 -118t-138.5 -332q0 -213 139 -332t373 -119q223 0 360.5 94t147.5 265h357q0 -273 -203.5 -449.5t-544.5 -204.5l-59 -114 q293 -18 457.5 -74t164.5 -145q0 -96 -242 -160.5t-630 -65.5v113q522 3 522 113t-522 118v109l63 108q-336 35 -535.5 235.5t-199.5 508.5z" />
<glyph unicode="&#xc8;" horiz-adv-x="1720" d="M172 0v1434h1397v-299h-1045v-267h1026v-280h-1026v-289h1045v-299h-1397zM293 1860v208l588 -380v-164z" />
<glyph unicode="&#xc9;" horiz-adv-x="1720" d="M172 0v1434h1397v-299h-1045v-267h1026v-280h-1026v-289h1045v-299h-1397zM819 1524v164l588 380v-208z" />
<glyph unicode="&#xca;" horiz-adv-x="1720" d="M172 0v1434h1397v-299h-1045v-267h1026v-280h-1026v-289h1045v-299h-1397zM281 1546v164l587 381l588 -381v-164l-588 336z" />
<glyph unicode="&#xcb;" horiz-adv-x="1720" d="M172 0v1434h1397v-299h-1045v-267h1026v-280h-1026v-289h1045v-299h-1397zM377 1686q0 78 56.5 126t146.5 48q96 0 149 -47t53 -127t-53 -127.5t-149 -47.5q-90 0 -146.5 48.5t-56.5 126.5zM971 1686q0 78 56.5 126t146.5 48q96 0 149 -47t53 -127t-53 -127.5t-149 -47.5 q-90 0 -146.5 48.5t-56.5 126.5z" />
<glyph unicode="&#xcc;" horiz-adv-x="696" d="M-227 1860v208l587 -380v-164zM172 0v1434h352v-1434h-352z" />
<glyph unicode="&#xcd;" horiz-adv-x="696" d="M172 0v1434h352v-1434h-352zM299 1524v164l588 380v-208z" />
<glyph unicode="&#xce;" horiz-adv-x="696" d="M-240 1546v164l588 381l588 -381v-164l-588 336zM172 0v1434h352v-1434h-352z" />
<glyph unicode="&#xcf;" horiz-adv-x="696" d="M-143 1686q0 78 56 126t146 48q97 0 150 -47t53 -127t-53.5 -127.5t-149.5 -47.5q-89 0 -145.5 48.5t-56.5 126.5zM172 0v1434h352v-1434h-352zM451 1686q0 78 56 126t146 48q97 0 150 -47t53 -127t-53.5 -127.5t-149.5 -47.5q-89 0 -145.5 48.5t-56.5 126.5z" />
<glyph unicode="&#xd0;" horiz-adv-x="1775" d="M41 571v293h131v570h682q394 0 615 -185t221 -532q0 -350 -221 -533.5t-615 -183.5h-682v571h-131zM524 299h330q238 0 365 107t127 311q0 207 -127.5 312.5t-364.5 105.5h-330v-271h541v-293h-541v-272z" />
<glyph unicode="&#xd1;" horiz-adv-x="1994" d="M172 0v1434h295l1006 -912v912h352v-1434h-297l-1004 911v-911h-352zM647 1583q1 119 71.5 192.5t180.5 73.5q36 0 69 -15t57 -36.5t47 -43.5t50 -37t54 -15q59 0 93.5 36t35.5 109h122q-1 -120 -71 -193t-180 -73q-41 0 -76.5 15t-61 37t-47.5 44t-45.5 37t-46.5 15 q-57 0 -91.5 -37t-35.5 -109h-125z" />
<glyph unicode="&#xd2;" horiz-adv-x="1984" d="M86 717q0 340 244 544.5t661 204.5q418 0 662.5 -204.5t244.5 -544.5q0 -224 -109 -393.5t-315 -263t-483 -93.5q-417 0 -661 205t-244 545zM418 1860v208l588 -380v-164zM438 717q0 -215 147 -333t406 -118q260 0 407.5 118t147.5 333q0 216 -147 333t-408 117 q-259 0 -406 -117t-147 -333z" />
<glyph unicode="&#xd3;" horiz-adv-x="1984" d="M86 717q0 340 244 544.5t661 204.5q418 0 662.5 -204.5t244.5 -544.5q0 -224 -109 -393.5t-315 -263t-483 -93.5q-417 0 -661 205t-244 545zM438 717q0 -215 147 -333t406 -118q260 0 407.5 118t147.5 333q0 216 -147 333t-408 117q-259 0 -406 -117t-147 -333zM944 1524 v164l588 380v-208z" />
<glyph unicode="&#xd4;" horiz-adv-x="1984" d="M86 717q0 340 244 544.5t661 204.5q418 0 662.5 -204.5t244.5 -544.5q0 -224 -109 -393.5t-315 -263t-483 -93.5q-417 0 -661 205t-244 545zM406 1546v164l587 381l588 -381v-164l-588 336zM438 717q0 -215 147 -333t406 -118q260 0 407.5 118t147.5 333q0 216 -147 333 t-408 117q-259 0 -406 -117t-147 -333z" />
<glyph unicode="&#xd5;" horiz-adv-x="1984" d="M86 717q0 340 244 544.5t661 204.5q418 0 662.5 -204.5t244.5 -544.5q0 -224 -109 -393.5t-315 -263t-483 -93.5q-417 0 -661 205t-244 545zM438 717q0 -215 147 -333t406 -118q260 0 407.5 118t147.5 333q0 216 -147 333t-408 117q-259 0 -406 -117t-147 -333zM639 1583 q1 119 71.5 192.5t180.5 73.5q44 0 84 -23t65.5 -50.5t59.5 -50.5t67 -23q59 0 93.5 36t35.5 109h123q-1 -120 -71.5 -193t-180.5 -73q-41 0 -76.5 15t-60.5 37t-47 44t-45.5 37t-46.5 15q-57 0 -91.5 -37t-35.5 -109h-125z" />
<glyph unicode="&#xd6;" horiz-adv-x="1984" d="M86 717q0 340 244 544.5t661 204.5q418 0 662.5 -204.5t244.5 -544.5q0 -224 -109 -393.5t-315 -263t-483 -93.5q-417 0 -661 205t-244 545zM438 717q0 -215 147 -333t406 -118q260 0 407.5 118t147.5 333q0 216 -147 333t-408 117q-259 0 -406 -117t-147 -333zM502 1686 q0 78 56.5 126t146.5 48q96 0 149 -47t53 -127t-53 -127.5t-149 -47.5q-90 0 -146.5 48.5t-56.5 126.5zM1096 1686q0 78 56 126t146 48q97 0 150 -47t53 -127t-53.5 -127.5t-149.5 -47.5q-89 0 -145.5 48.5t-56.5 126.5z" />
<glyph unicode="&#xd7;" horiz-adv-x="1228" d="M115 406l272 272l-272 272l207 207l272 -272l272 274l207 -207l-272 -274l272 -272l-207 -207l-272 272l-272 -272z" />
<glyph unicode="&#xd8;" horiz-adv-x="1992" d="M-18 0l280 236q-176 194 -176 481q0 340 244 544.5t661 204.5q338 0 570 -139l125 107h319l-283 -238q176 -191 176 -479q0 -224 -109 -393.5t-315 -263t-483 -93.5q-336 0 -565 137l-125 -104h-319zM438 717q0 -156 82 -264l780 657q-129 57 -309 57q-259 0 -406 -117 t-147 -333zM686 324q132 -58 305 -58q260 0 407.5 118t147.5 333q0 154 -80 264z" />
<glyph unicode="&#xd9;" horiz-adv-x="1878" d="M172 754v680h352v-742q0 -208 105 -312t309 -104q205 0 310.5 104t105.5 312v742h352v-680q0 -129 -18 -235.5t-52 -187.5t-85 -143t-113.5 -103.5t-142.5 -68t-167 -38t-190 -11.5q-146 0 -260.5 23t-211.5 78.5t-160 144.5t-98.5 225t-35.5 316zM362 1860v208l588 -380 v-164z" />
<glyph unicode="&#xda;" horiz-adv-x="1878" d="M172 754v680h352v-742q0 -208 105 -312t309 -104q205 0 310.5 104t105.5 312v742h352v-680q0 -129 -18 -235.5t-52 -187.5t-85 -143t-113.5 -103.5t-142.5 -68t-167 -38t-190 -11.5q-146 0 -260.5 23t-211.5 78.5t-160 144.5t-98.5 225t-35.5 316zM889 1524v164l588 380 v-208z" />
<glyph unicode="&#xdb;" horiz-adv-x="1878" d="M172 754v680h352v-742q0 -208 105 -312t309 -104q205 0 310.5 104t105.5 312v742h352v-680q0 -129 -18 -235.5t-52 -187.5t-85 -143t-113.5 -103.5t-142.5 -68t-167 -38t-190 -11.5q-146 0 -260.5 23t-211.5 78.5t-160 144.5t-98.5 225t-35.5 316zM350 1546v164l588 381 l588 -381v-164l-588 336z" />
<glyph unicode="&#xdc;" horiz-adv-x="1878" d="M172 754v680h352v-742q0 -208 105 -312t309 -104q205 0 310.5 104t105.5 312v742h352v-680q0 -129 -18 -235.5t-52 -187.5t-85 -143t-113.5 -103.5t-142.5 -68t-167 -38t-190 -11.5q-146 0 -260.5 23t-211.5 78.5t-160 144.5t-98.5 225t-35.5 316zM446 1686 q0 78 56.5 126t146.5 48q97 0 150 -47t53 -127t-53.5 -127.5t-149.5 -47.5q-90 0 -146.5 48.5t-56.5 126.5zM1040 1686q0 78 56.5 126t146.5 48q97 0 150 -47t53 -127t-53.5 -127.5t-149.5 -47.5q-90 0 -146.5 48.5t-56.5 126.5z" />
<glyph unicode="&#xdd;" horiz-adv-x="2054" d="M51 1434h434l541 -676l543 676h434l-801 -969v-465h-352v463zM977 1524v164l588 380v-208z" />
<glyph unicode="&#xde;" horiz-adv-x="1685" d="M139 0v1434h359v-410h665q217 0 349.5 -126.5t132.5 -311.5q0 -141 -63.5 -241t-170.5 -147.5t-248 -47.5h-663v-150h-361zM498 745l2 -317h612q84 0 132 41.5t48 116.5t-48 117t-132 42h-614z" />
<glyph unicode="&#xdf;" horiz-adv-x="1744" d="M78 0v1434h737q111 0 183 -1.5t165.5 -9.5t152.5 -22t123 -40.5t99.5 -64t58.5 -93.5t23 -128q0 -181 -160.5 -262.5t-515.5 -81.5v-18q376 -12 546.5 -91t170.5 -239q0 -85 -27.5 -151.5t-82 -112t-126 -76.5t-170 -47.5t-203 -23t-235.5 -5.5q-134 4 -207 8v297 q99 -6 187 -6q275 0 402.5 31.5t127.5 116.5q0 60 -57 94.5t-209.5 58.5t-450.5 43v215q291 18 439 42.5t192.5 55t44.5 83.5q0 46 -35 77t-105 46.5t-152 21.5t-199 6h-365v-1157h-352z" />
<glyph unicode="&#xe0;" horiz-adv-x="1406" d="M86 238q0 55 25.5 101.5t68.5 81t109 62.5t137.5 47t163 34t176.5 24t188 16q0 82 -60 120t-181 38q-115 0 -252.5 -31t-245.5 -78v293q134 49 291.5 80t288.5 31q512 0 512 -479v-578h-338l45 367h-21q-46 -212 -169 -306t-357 -94q-53 0 -99 5t-100 22t-92 45.5 t-64 79.5t-26 119zM197 1450v209l587 -381v-164zM451 301q0 -43 47.5 -67.5t124.5 -24.5q133 0 231.5 63t97.5 179q-43 -3 -71.5 -5t-70.5 -5.5t-70.5 -7.5t-65 -9t-61.5 -11.5t-53 -14.5t-46 -18t-33.5 -21.5t-22.5 -26t-7 -31.5z" />
<glyph unicode="&#xe1;" horiz-adv-x="1406" d="M86 238q0 55 25.5 101.5t68.5 81t109 62.5t137.5 47t163 34t176.5 24t188 16q0 82 -60 120t-181 38q-115 0 -252.5 -31t-245.5 -78v293q134 49 291.5 80t288.5 31q512 0 512 -479v-578h-338l45 367h-21q-46 -212 -169 -306t-357 -94q-53 0 -99 5t-100 22t-92 45.5 t-64 79.5t-26 119zM451 301q0 -43 47.5 -67.5t124.5 -24.5q133 0 231.5 63t97.5 179q-43 -3 -71.5 -5t-70.5 -5.5t-70.5 -7.5t-65 -9t-61.5 -11.5t-53 -14.5t-46 -18t-33.5 -21.5t-22.5 -26t-7 -31.5zM723 1114v164l588 381v-209z" />
<glyph unicode="&#xe2;" horiz-adv-x="1406" d="M86 238q0 55 25.5 101.5t68.5 81t109 62.5t137.5 47t163 34t176.5 24t188 16q0 82 -60 120t-181 38q-115 0 -252.5 -31t-245.5 -78v293q134 49 291.5 80t288.5 31q512 0 512 -479v-578h-338l45 367h-21q-46 -212 -169 -306t-357 -94q-53 0 -99 5t-100 22t-92 45.5 t-64 79.5t-26 119zM184 1137v163l588 381l588 -381v-163l-588 336zM451 301q0 -43 47.5 -67.5t124.5 -24.5q133 0 231.5 63t97.5 179q-43 -3 -71.5 -5t-70.5 -5.5t-70.5 -7.5t-65 -9t-61.5 -11.5t-53 -14.5t-46 -18t-33.5 -21.5t-22.5 -26t-7 -31.5z" />
<glyph unicode="&#xe3;" horiz-adv-x="1406" d="M86 238q0 55 25.5 101.5t68.5 81t109 62.5t137.5 47t163 34t176.5 24t188 16q0 82 -60 120t-181 38q-115 0 -252.5 -31t-245.5 -78v293q134 49 291.5 80t288.5 31q512 0 512 -479v-578h-338l45 367h-21q-46 -212 -169 -306t-357 -94q-53 0 -99 5t-100 22t-92 45.5 t-64 79.5t-26 119zM418 1174q1 119 71.5 192.5t180.5 73.5q36 0 68.5 -15t57 -37t47.5 -44t49.5 -37t53.5 -15q59 0 93.5 36.5t35.5 109.5h123q-1 -120 -71.5 -193.5t-180.5 -73.5q-41 0 -76.5 15t-60.5 37t-47 44t-45.5 37t-46.5 15q-57 0 -91.5 -37t-35.5 -108h-125z M451 301q0 -43 47.5 -67.5t124.5 -24.5q133 0 231.5 63t97.5 179q-43 -3 -71.5 -5t-70.5 -5.5t-70.5 -7.5t-65 -9t-61.5 -11.5t-53 -14.5t-46 -18t-33.5 -21.5t-22.5 -26t-7 -31.5z" />
<glyph unicode="&#xe4;" horiz-adv-x="1406" d="M86 238q0 55 25.5 101.5t68.5 81t109 62.5t137.5 47t163 34t176.5 24t188 16q0 82 -60 120t-181 38q-115 0 -252.5 -31t-245.5 -78v293q134 49 291.5 80t288.5 31q512 0 512 -479v-578h-338l45 367h-21q-46 -212 -169 -306t-357 -94q-53 0 -99 5t-100 22t-92 45.5 t-64 79.5t-26 119zM281 1276q0 78 56 126t146 48q97 0 150 -47t53 -127t-53 -127t-150 -47q-90 0 -146 48t-56 126zM451 301q0 -43 47.5 -67.5t124.5 -24.5q133 0 231.5 63t97.5 179q-43 -3 -71.5 -5t-70.5 -5.5t-70.5 -7.5t-65 -9t-61.5 -11.5t-53 -14.5t-46 -18 t-33.5 -21.5t-22.5 -26t-7 -31.5zM874 1276q0 78 56.5 126t146.5 48q97 0 150 -47t53 -127t-53 -127t-150 -47q-90 0 -146.5 48t-56.5 126z" />
<glyph unicode="&#xe5;" horiz-adv-x="1406" d="M86 238q0 55 25.5 101.5t68.5 81t109 62.5t137.5 47t163 34t176.5 24t188 16q0 82 -60 120t-181 38q-115 0 -252.5 -31t-245.5 -78v293q134 49 291.5 80t288.5 31q512 0 512 -479v-578h-338l45 367h-21q-46 -212 -169 -306t-357 -94q-53 0 -99 5t-100 22t-92 45.5 t-64 79.5t-26 119zM254 1313q0 62 71.5 110.5t189 74.5t257.5 26q231 0 374.5 -58t143.5 -153t-143.5 -153t-374.5 -58q-140 0 -257.5 26t-189 74.5t-71.5 110.5zM451 301q0 -43 47.5 -67.5t124.5 -24.5q133 0 231.5 63t97.5 179q-43 -3 -71.5 -5t-70.5 -5.5t-70.5 -7.5 t-65 -9t-61.5 -11.5t-53 -14.5t-46 -18t-33.5 -21.5t-22.5 -26t-7 -31.5zM590 1313q0 -52 50.5 -79.5t131.5 -27.5t133.5 28t52.5 77q0 54 -50 81t-136 27q-82 0 -132 -27t-50 -79z" />
<glyph unicode="&#xe6;" horiz-adv-x="2281" d="M86 238q0 52 23 96.5t58 76.5t92 58t109 43t127 30t127.5 19.5t128 11.5t112.5 6.5t95 2.5q-1 57 -16 93.5t-49 55t-74.5 25t-105.5 6.5q-116 0 -253.5 -30.5t-244.5 -76.5v291q134 49 291.5 80t288.5 31q253 0 368 -127q161 127 416 127q275 0 443 -127.5t173 -337.5 v-168h-888q26 -97 117 -142.5t257 -45.5q72 0 129.5 5.5t114 21.5t78 22.5t82 33.5t65.5 29v-280q-146 -56 -262.5 -78.5t-308.5 -22.5q-221 0 -376.5 98t-211.5 269q-33 -181 -168 -274t-356 -93q-53 0 -99 5t-100 22t-92 45.5t-64 79.5t-26 119zM451 301q0 -43 48.5 -68.5 t123.5 -25.5q83 1 153.5 25.5t119.5 78.5t52 129q-227 -9 -308 -23q-188 -31 -189 -116zM1298 567l560 13q-11 198 -279 198q-124 0 -195 -50t-86 -161z" />
<glyph unicode="&#xe7;" horiz-adv-x="1263" d="M86 512q0 250 162.5 397.5t449.5 147.5q133 0 242 -26.5t238 -84.5v-295q-213 127 -426 127q-160 0 -243 -67t-83 -199q0 -131 85.5 -198.5t246.5 -67.5q224 0 420 123v-291q-113 -49 -192.5 -74t-172.5 -33l-59 -114q293 -18 457.5 -74t164.5 -145q0 -96 -242 -160.5 t-630 -65.5v113q522 3 522 113t-522 118v109l63 112q-223 32 -352 175.5t-129 359.5z" />
<glyph unicode="&#xe8;" horiz-adv-x="1404" d="M86 512q0 246 169 395.5t447 149.5q275 0 443.5 -127.5t173.5 -337.5v-168h-889q26 -97 117.5 -142.5t257.5 -45.5q72 0 129.5 5.5t114 21.5t78 22.5t82 33.5t65.5 29v-280q-146 -56 -263 -78.5t-309 -22.5q-278 0 -447 149.5t-169 395.5zM160 1450v209l588 -381v-164z M422 567l559 13q-11 198 -279 198q-252 0 -280 -211z" />
<glyph unicode="&#xe9;" horiz-adv-x="1404" d="M86 512q0 246 169 395.5t447 149.5q275 0 443.5 -127.5t173.5 -337.5v-168h-889q26 -97 117.5 -142.5t257.5 -45.5q72 0 129.5 5.5t114 21.5t78 22.5t82 33.5t65.5 29v-280q-146 -56 -263 -78.5t-309 -22.5q-278 0 -447 149.5t-169 395.5zM422 567l559 13 q-11 198 -279 198q-252 0 -280 -211zM653 1114v164l588 381v-209z" />
<glyph unicode="&#xea;" horiz-adv-x="1404" d="M86 512q0 246 169 395.5t447 149.5q275 0 443.5 -127.5t173.5 -337.5v-168h-889q26 -97 117.5 -142.5t257.5 -45.5q72 0 129.5 5.5t114 21.5t78 22.5t82 33.5t65.5 29v-280q-146 -56 -263 -78.5t-309 -22.5q-278 0 -447 149.5t-169 395.5zM115 1137v163l587 381l588 -381 v-163l-588 336zM422 567l559 13q-11 198 -279 198q-252 0 -280 -211z" />
<glyph unicode="&#xeb;" horiz-adv-x="1404" d="M86 512q0 246 169 395.5t447 149.5q275 0 443.5 -127.5t173.5 -337.5v-168h-889q26 -97 117.5 -142.5t257.5 -45.5q72 0 129.5 5.5t114 21.5t78 22.5t82 33.5t65.5 29v-280q-146 -56 -263 -78.5t-309 -22.5q-278 0 -447 149.5t-169 395.5zM211 1276q0 78 56.5 126 t146.5 48q96 0 149 -47t53 -127t-53 -127t-149 -47q-90 0 -146.5 48t-56.5 126zM422 567l559 13q-11 198 -279 198q-252 0 -280 -211zM805 1276q0 78 56.5 126t146.5 48q96 0 149 -47t53 -127t-53 -127t-149 -47q-90 0 -146.5 48t-56.5 126z" />
<glyph unicode="&#xec;" horiz-adv-x="432" d="M-358 1446v209l587 -381v-164zM39 0v1024h352v-1024h-352z" />
<glyph unicode="&#xed;" horiz-adv-x="432" d="M39 0v1024h352v-1024h-352zM168 1110v164l588 381v-209z" />
<glyph unicode="&#xee;" horiz-adv-x="432" d="M-371 1133v163l588 381l588 -381v-163l-588 335zM39 0v1024h352v-1024h-352z" />
<glyph unicode="&#xef;" horiz-adv-x="432" d="M-274 1272q0 78 56 126t146 48q97 0 150 -47t53 -127t-53 -127t-150 -47q-90 0 -146 48t-56 126zM39 0v1024h352v-1024h-352zM319 1272q0 78 56.5 126t146.5 48q97 0 150 -47t53 -127t-53 -127t-150 -47q-90 0 -146.5 48t-56.5 126z" />
<glyph unicode="&#xf0;" horiz-adv-x="1699" d="M61 455q0 107 39 194.5t117.5 153.5t205 102.5t292.5 36.5q101 0 192 -23t160.5 -63t121 -83.5t93.5 -94.5q2 20 2 63q0 91 -34 195.5t-99 196.5l-399 -117l-58 186l301 86q-131 94 -301 103l8 155q348 0 594 -170l297 86l60 -184l-187 -53q170 -204 170 -484 q0 -193 -58 -339.5t-166.5 -239.5t-259.5 -140t-341 -47q-353 0 -551.5 130t-198.5 350zM416 485q0 -102 114.5 -160.5t298.5 -58.5q339 0 428 277q-87 71 -223.5 117.5t-267.5 46.5q-163 0 -256.5 -60t-93.5 -162z" />
<glyph unicode="&#xf1;" horiz-adv-x="1503" d="M119 0v1024h381l-41 -422h16q38 232 158 343.5t352 111.5q113 -2 188.5 -30.5t129 -98.5t78 -188t24.5 -296v-444h-352v410q0 213 -60 298t-200 85q-144 0 -233 -133.5t-89 -346.5v-313h-352zM446 1174q1 119 71.5 192.5t180.5 73.5q36 0 69 -15t57 -37t47 -44t50 -37 t54 -15q59 0 93.5 36.5t35.5 109.5h123q-1 -120 -71.5 -193.5t-180.5 -73.5q-41 0 -76.5 15t-61 37t-47.5 44t-45.5 37t-46.5 15q-57 0 -91.5 -37t-35.5 -108h-125z" />
<glyph unicode="&#xf2;" horiz-adv-x="1470" d="M86 512q0 246 178 395.5t471 149.5t471 -149.5t178 -395.5t-178 -395.5t-471 -149.5t-471 149.5t-178 395.5zM162 1450v209l588 -381v-164zM418 512q0 -120 87 -193t230 -73t230.5 73t87.5 193t-87.5 193t-230.5 73t-230 -73t-87 -193z" />
<glyph unicode="&#xf3;" horiz-adv-x="1470" d="M86 512q0 246 178 395.5t471 149.5t471 -149.5t178 -395.5t-178 -395.5t-471 -149.5t-471 149.5t-178 395.5zM418 512q0 -120 87 -193t230 -73t230.5 73t87.5 193t-87.5 193t-230.5 73t-230 -73t-87 -193zM688 1114v164l588 381v-209z" />
<glyph unicode="&#xf4;" horiz-adv-x="1470" d="M86 512q0 246 178 395.5t471 149.5t471 -149.5t178 -395.5t-178 -395.5t-471 -149.5t-471 149.5t-178 395.5zM150 1137v163l587 381l588 -381v-163l-588 336zM418 512q0 -120 87 -193t230 -73t230.5 73t87.5 193t-87.5 193t-230.5 73t-230 -73t-87 -193z" />
<glyph unicode="&#xf5;" horiz-adv-x="1470" d="M86 512q0 246 178 395.5t471 149.5t471 -149.5t178 -395.5t-178 -395.5t-471 -149.5t-471 149.5t-178 395.5zM383 1174q1 119 71.5 192.5t180.5 73.5q36 0 68.5 -15t57 -37t47.5 -44t49.5 -37t53.5 -15q59 0 93.5 36.5t35.5 109.5h123q-1 -120 -71.5 -193.5t-180.5 -73.5 q-41 0 -76.5 15t-60.5 37t-47 44t-45.5 37t-46.5 15q-57 0 -91.5 -37t-35.5 -108h-125zM418 512q0 -120 87 -193t230 -73t230.5 73t87.5 193t-87.5 193t-230.5 73t-230 -73t-87 -193z" />
<glyph unicode="&#xf6;" horiz-adv-x="1470" d="M86 512q0 246 178 395.5t471 149.5t471 -149.5t178 -395.5t-178 -395.5t-471 -149.5t-471 149.5t-178 395.5zM246 1276q0 78 56.5 126t146.5 48q96 0 149 -47t53 -127t-53 -127t-149 -47q-90 0 -146.5 48t-56.5 126zM418 512q0 -120 87 -193t230 -73t230.5 73t87.5 193 t-87.5 193t-230.5 73t-230 -73t-87 -193zM840 1276q0 78 56 126t146 48q97 0 150 -47t53 -127t-53 -127t-150 -47q-90 0 -146 48t-56 126z" />
<glyph unicode="&#xf7;" horiz-adv-x="1228" d="M70 498v293h1065v-293h-1065zM408 164q0 87 54 137.5t144 50.5q89 0 145 -51t56 -137q0 -88 -54.5 -139.5t-146.5 -51.5q-90 0 -144 52t-54 139zM408 1104q0 87 54 137.5t144 50.5q89 0 145 -51t56 -137q0 -88 -54.5 -139.5t-146.5 -51.5q-90 0 -144 52t-54 139z" />
<glyph unicode="&#xf8;" horiz-adv-x="1470" d="M-29 0l224 188q-109 134 -109 324q0 246 178 395.5t471 149.5q221 0 385 -90l68 57h319l-227 -193q104 -132 104 -319q0 -246 -178 -395.5t-471 -149.5q-222 0 -379 88l-65 -55h-320zM418 512q0 -63 24 -115l428 361q-65 20 -135 20q-143 0 -230 -73t-87 -193zM606 264 q55 -18 129 -18q143 0 230.5 73t87.5 193q0 57 -23 111z" />
<glyph unicode="&#xf9;" horiz-adv-x="1503" d="M98 580v444h353v-410q0 -213 60 -298t200 -85q144 0 232.5 133.5t88.5 346.5v313h352v-1024h-380l40 422h-16q-38 -232 -158 -343.5t-352 -111.5q-113 2 -188.5 30.5t-129 98.5t-78 188t-24.5 296zM137 1450v209l588 -381v-164z" />
<glyph unicode="&#xfa;" horiz-adv-x="1503" d="M98 580v444h353v-410q0 -213 60 -298t200 -85q144 0 232.5 133.5t88.5 346.5v313h352v-1024h-380l40 422h-16q-38 -232 -158 -343.5t-352 -111.5q-113 2 -188.5 30.5t-129 98.5t-78 188t-24.5 296zM664 1114v164l587 381v-209z" />
<glyph unicode="&#xfb;" horiz-adv-x="1503" d="M98 580v444h353v-410q0 -213 60 -298t200 -85q144 0 232.5 133.5t88.5 346.5v313h352v-1024h-380l40 422h-16q-38 -232 -158 -343.5t-352 -111.5q-113 2 -188.5 30.5t-129 98.5t-78 188t-24.5 296zM125 1137v163l588 381l587 -381v-163l-587 336z" />
<glyph unicode="&#xfc;" horiz-adv-x="1503" d="M98 580v444h353v-410q0 -213 60 -298t200 -85q144 0 232.5 133.5t88.5 346.5v313h352v-1024h-380l40 422h-16q-38 -232 -158 -343.5t-352 -111.5q-113 2 -188.5 30.5t-129 98.5t-78 188t-24.5 296zM221 1276q0 78 56.5 126t146.5 48q97 0 150 -47t53 -127t-53 -127 t-150 -47q-90 0 -146.5 48t-56.5 126zM815 1276q0 78 56.5 126t146.5 48q97 0 150 -47t53 -127t-53 -127t-150 -47q-90 0 -146.5 48t-56.5 126z" />
<glyph unicode="&#xfd;" horiz-adv-x="1615" d="M51 1024h400l364 -664l363 664h387l-770 -1434h-387l227 422zM782 1114v164l588 381v-209z" />
<glyph unicode="&#xfe;" horiz-adv-x="1435" d="M61 -410v1844h361l-45 -744h24q24 123 102 208t180.5 122t223.5 37q214 0 340.5 -149t126.5 -404q0 -250 -127 -393.5t-344 -143.5q-181 0 -312.5 92.5t-168.5 272.5h-8v-742h-353zM436 508q0 -71 23 -123t65 -80.5t93 -41.5t114 -13q291 0 291 258q0 137 -77 201.5 t-214 64.5q-63 0 -114 -14t-93 -44t-65 -83t-23 -125z" />
<glyph unicode="&#xff;" horiz-adv-x="1615" d="M51 1024h400l364 -664l363 664h387l-770 -1434h-387l227 422zM340 1276q0 78 56.5 126t146.5 48q96 0 149 -47t53 -127t-53 -127t-149 -47q-90 0 -146.5 48t-56.5 126zM934 1276q0 78 56.5 126t146.5 48q96 0 149 -47t53 -127t-53 -127t-149 -47q-90 0 -146.5 48 t-56.5 126z" />
<glyph unicode="&#x152;" horiz-adv-x="3129" d="M86 717q0 340 244 544.5t661 204.5q356 0 590 -151v119h1397v-299h-1045v-267h1026v-280h-1026v-289h1045v-299h-1397v119q-236 -152 -590 -152q-417 0 -661 205t-244 545zM438 717q0 -215 147 -333t406 -118q260 0 407.5 118t147.5 333q0 216 -147 333t-408 117 q-259 0 -406 -117t-147 -333z" />
<glyph unicode="&#x153;" horiz-adv-x="2377" d="M86 512q0 246 178 395.5t471 149.5q304 0 484 -160q171 160 458 160q275 0 443.5 -127.5t173.5 -337.5v-168h-889q26 -97 117.5 -142.5t257.5 -45.5q72 0 129.5 5.5t114 21.5t78 22.5t82 33.5t65.5 29v-280q-146 -56 -263 -78.5t-309 -22.5q-287 0 -458 160 q-180 -160 -484 -160q-293 0 -471 149.5t-178 395.5zM418 512q0 -120 87 -193t230 -73t230.5 73t87.5 193t-87.5 193t-230.5 73t-230 -73t-87 -193zM1397 567l559 13q-11 198 -279 198q-252 0 -280 -211z" />
<glyph unicode="&#x178;" horiz-adv-x="2054" d="M51 1434h434l541 -676l543 676h434l-801 -969v-465h-352v463zM535 1686q0 78 56 126t146 48q97 0 150 -47t53 -127t-53.5 -127.5t-149.5 -47.5q-89 0 -145.5 48.5t-56.5 126.5zM1128 1686q0 78 56.5 126t146.5 48q97 0 150 -47t53 -127t-53.5 -127.5t-149.5 -47.5 q-90 0 -146.5 48.5t-56.5 126.5z" />
<glyph unicode="&#x2c6;" horiz-adv-x="1380" d="M102 1137v163l588 381l588 -381v-163l-588 336z" />
<glyph unicode="&#x2dc;" horiz-adv-x="985" d="M102 1174q1 119 71.5 192.5t180.5 73.5q36 0 69 -15t57 -37t47 -44t50 -37t54 -15q59 0 93.5 36.5t35.5 109.5h123q-1 -120 -71.5 -193.5t-180.5 -73.5q-41 0 -76.5 15t-61 37t-47.5 44t-45.5 37t-46.5 15q-57 0 -91.5 -37t-35.5 -108h-125z" />
<glyph unicode="&#x2000;" horiz-adv-x="1045" />
<glyph unicode="&#x2001;" horiz-adv-x="2091" />
<glyph unicode="&#x2002;" horiz-adv-x="1045" />
<glyph unicode="&#x2003;" horiz-adv-x="2091" />
<glyph unicode="&#x2004;" horiz-adv-x="697" />
<glyph unicode="&#x2005;" horiz-adv-x="522" />
<glyph unicode="&#x2006;" horiz-adv-x="348" />
<glyph unicode="&#x2007;" horiz-adv-x="348" />
<glyph unicode="&#x2008;" horiz-adv-x="261" />
<glyph unicode="&#x2009;" horiz-adv-x="418" />
<glyph unicode="&#x200a;" horiz-adv-x="116" />
<glyph unicode="&#x2010;" horiz-adv-x="942" d="M61 530v293h820v-293h-820z" />
<glyph unicode="&#x2011;" horiz-adv-x="942" d="M61 530v293h820v-293h-820z" />
<glyph unicode="&#x2012;" horiz-adv-x="942" d="M61 530v293h820v-293h-820z" />
<glyph unicode="&#x2013;" horiz-adv-x="1146" d="M61 530v293h1024v-293h-1024z" />
<glyph unicode="&#x2014;" horiz-adv-x="2170" d="M61 530v293h2048v-293h-2048z" />
<glyph unicode="&#x2018;" horiz-adv-x="600" d="M106 881l232 553h201l-129 -553h-304z" />
<glyph unicode="&#x2019;" horiz-adv-x="600" d="M61 881l129 553h304l-232 -553h-201z" />
<glyph unicode="&#x201a;" horiz-adv-x="600" d="M61 -346l129 553h304l-232 -553h-201z" />
<glyph unicode="&#x201c;" horiz-adv-x="1054" d="M106 881l232 553h201l-129 -553h-304zM561 881l232 553h200l-129 -553h-303z" />
<glyph unicode="&#x201d;" horiz-adv-x="1054" d="M61 881l129 553h304l-232 -553h-201zM516 881l129 553h303l-231 -553h-201z" />
<glyph unicode="&#x201e;" horiz-adv-x="600" d="M61 -346l129 553h304l-232 -553h-201z" />
<glyph unicode="&#x2022;" horiz-adv-x="1245" d="M102 635q0 227 142.5 359t378.5 132q231 0 376.5 -133t145.5 -358q0 -229 -141.5 -363.5t-380.5 -134.5q-235 0 -378 135.5t-143 362.5z" />
<glyph unicode="&#x2026;" horiz-adv-x="1853" d="M78 164q0 87 54 137.5t144 50.5q89 0 145 -51t56 -137q0 -88 -54.5 -139.5t-146.5 -51.5q-90 0 -144 52t-54 139zM692 164q0 87 54.5 137.5t144.5 50.5q89 0 145 -51t56 -137q0 -88 -54.5 -139.5t-146.5 -51.5q-90 0 -144.5 52t-54.5 139zM1307 164q0 87 54 137.5 t144 50.5q89 0 145 -51t56 -137q0 -88 -54.5 -139.5t-146.5 -51.5q-90 0 -144 52t-54 139z" />
<glyph unicode="&#x202f;" horiz-adv-x="418" />
<glyph unicode="&#x2039;" horiz-adv-x="974" d="M61 512l422 512h430l-438 -512l438 -512h-430z" />
<glyph unicode="&#x203a;" horiz-adv-x="974" d="M61 0l439 512l-439 512h431l421 -512l-421 -512h-431z" />
<glyph unicode="&#x205f;" horiz-adv-x="522" />
<glyph unicode="&#x20ac;" horiz-adv-x="2082" d="M47 467v211h229v39q0 22 3 43h-232v211h270q80 230 298 362.5t526 132.5q257 0 453 -81.5t303.5 -231t107.5 -344.5h-356q-12 173 -149 265.5t-359 92.5q-152 0 -266 -50t-177 -146h639v-211h-706q-2 -14 -2 -43q0 -27 2 -39h706v-211h-641q63 -98 177.5 -149.5 t267.5 -51.5q223 0 360.5 94t147.5 265h356q0 -195 -107.5 -345t-304 -231.5t-452.5 -81.5q-309 0 -527.5 134t-298.5 366h-268z" />
<glyph unicode="&#x2122;" horiz-adv-x="2678" d="M137 1229v205h1151v-205h-457v-774h-239v774h-455zM1376 455v979h215l404 -635l401 635h215v-979h-241v565l-353 -565h-47l-352 563v-563h-242z" />
<glyph unicode="&#x25fc;" horiz-adv-x="1024" d="M0 0v1024h1024v-1024h-1024z" />
</font>
</defs>
</svg>
